<?xml version="1.0" encoding="utf-8"?>
<!-- Generator: Adobe Illustrator 27.5.0, SVG Export Plug-In . SVG Version: 6.00 Build 0)  -->
<svg version="1.1" id="Capa_1" xmlns="http://www.w3.org/2000/svg" xmlns:xlink="http://www.w3.org/1999/xlink" x="0px" y="0px"
	 viewBox="0 0 1982 2272" style="enable-background:new 0 0 1982 2272;" xml:space="preserve">
<path style="fill:#8ECEED;" d="M425.447,1957.32c0,95.729,253.029,173.334,565.157,173.334
	c312.127,0,565.157-77.604,565.157-173.334c0-68.701-130.318-128.066-319.272-156.113c0.852-0.908,1.702-1.819,2.555-2.734
	c6.067-6.517,12.142-13.191,18.222-20.019c1.823-2.048,3.647-4.11,5.473-6.185c9.73-11.067,19.466-22.516,29.188-34.313
	c1.215-1.475,2.43-2.954,3.644-4.439c1.215-1.486,2.43-2.977,3.644-4.473c1.213-1.496,2.428-2.997,3.64-4.504
	c3.034-3.767,6.065-7.566,9.093-11.397c1.212-1.533,2.422-3.07,3.633-4.613c3.631-4.628,7.257-9.301,10.879-14.018
	c1.206-1.571,2.413-3.148,3.618-4.73c2.412-3.163,4.819-6.346,7.226-9.548c1.202-1.601,2.405-3.205,3.606-4.815
	c9.61-12.879,19.171-26.051,28.659-39.483c1.187-1.68,2.372-3.362,3.555-5.049c17.759-25.308,35.256-51.517,52.358-78.41
	c1.71-2.689,3.415-5.386,5.117-8.089c4.539-7.208,9.049-14.463,13.527-21.761c1.118-1.824,2.236-3.652,3.352-5.482
	c3.905-6.404,7.783-12.841,11.636-19.307c1.651-2.771,3.299-5.549,4.939-8.33c2.735-4.637,5.457-9.288,8.163-13.952
	c1.624-2.798,3.244-5.603,4.857-8.41c1.076-1.872,2.147-3.746,3.22-5.622c1.069-1.877,2.139-3.754,3.204-5.635
	c0.534-0.939,1.065-1.881,1.598-2.821c1.594-2.823,3.185-5.65,4.769-8.481c3.694-6.606,7.359-13.234,10.989-19.883
	c1.557-2.849,3.105-5.702,4.649-8.558c3.089-5.711,6.151-11.437,9.188-17.174c1.519-2.868,3.029-5.74,4.534-8.614
	c1.004-1.916,2.005-3.832,3.003-5.751c1.995-3.836,3.979-7.678,5.949-11.523c0.493-0.961,0.984-1.922,1.477-2.884
	c0.981-1.924,1.961-3.849,2.937-5.774c0.489-0.962,0.976-1.925,1.463-2.889c0.974-1.926,1.942-3.854,2.909-5.782
	c1.449-2.892,2.894-5.785,4.329-8.681c0.478-0.965,0.956-1.931,1.433-2.896c0.954-1.931,1.905-3.862,2.852-5.795
	c0.474-0.966,0.947-1.933,1.418-2.898c0.944-1.934,1.886-3.867,2.822-5.801c1.405-2.901,2.804-5.804,4.194-8.707
	c1.39-2.903,2.772-5.808,4.148-8.713c0.458-0.968,0.916-1.937,1.372-2.904c0.913-1.938,1.821-3.875,2.729-5.813
	c0.452-0.969,0.905-1.938,1.356-2.906c1.354-2.907,2.699-5.813,4.036-8.721c0.892-1.938,1.78-3.877,2.664-5.815
	s1.765-3.877,2.643-5.815c0.876-1.938,1.75-3.876,2.618-5.814c0.87-1.938,1.736-3.877,2.597-5.814
	c0.862-1.938,1.72-3.876,2.574-5.814c1.282-2.906,2.556-5.813,3.819-8.718c0.842-1.938,1.681-3.873,2.516-5.81
	c0.417-0.968,0.833-1.937,1.249-2.904c0.831-1.937,1.657-3.871,2.48-5.806c0.823-1.936,1.642-3.871,2.456-5.805
	c1.63-3.868,3.243-7.733,4.84-11.597c0.398-0.966,0.798-1.932,1.194-2.897c0.794-1.932,1.585-3.861,2.371-5.791
	c1.966-4.823,3.903-9.643,5.815-14.456c0.765-1.926,1.525-3.851,2.281-5.773c0.378-0.962,0.755-1.924,1.131-2.885
	c1.504-3.846,2.99-7.687,4.458-11.522c2.938-7.673,5.804-15.328,8.596-22.961c1.396-3.816,2.774-7.626,4.133-11.431
	c0.68-1.902,1.355-3.803,2.026-5.702c0.67-1.9,1.335-3.797,1.995-5.693c0.991-2.844,1.972-5.685,2.94-8.521
	c1.293-3.782,2.566-7.557,3.82-11.324c0.627-1.884,1.249-3.766,1.866-5.646c0.926-2.82,1.84-5.635,2.742-8.446
	c10.84-33.731,20.057-66.804,27.416-98.848c1.84-8.011,3.563-15.957,5.167-23.834c3.742-18.378,6.832-36.375,9.221-53.915
	c3.87-28.398,5.904-55.601,5.904-81.295l-0.001-0.28c0-1.22-0.006-2.439-0.011-3.657l-0.008-1.15
	c-0.01-1.259-0.021-2.517-0.037-3.775l-0.01-0.795c-0.016-1.083-0.032-2.165-0.053-3.246l-0.021-1.134
	c-0.024-1.252-0.053-2.503-0.083-3.753l-0.026-1.002c-0.026-1.009-0.055-2.016-0.086-3.023l-0.037-1.181
	c-0.039-1.225-0.081-2.448-0.128-3.672l-0.045-1.165c-0.038-0.993-0.08-1.987-0.123-2.979l-0.045-1.073
	c-0.056-1.21-0.113-2.419-0.173-3.629l-0.067-1.304c-0.05-0.974-0.102-1.947-0.156-2.921l-0.059-1.028
	c-0.068-1.214-0.143-2.428-0.219-3.64l-0.079-1.259c-0.07-1.088-0.143-2.177-0.218-3.264l-0.076-1.083
	c-0.075-1.065-0.153-2.131-0.233-3.196l-0.101-1.324c-0.09-1.168-0.182-2.337-0.277-3.503l-0.1-1.21
	c-0.076-0.894-0.152-1.788-0.231-2.682c-0.042-0.486-0.085-0.972-0.128-1.458c-0.102-1.125-0.205-2.25-0.311-3.374
	c-0.047-0.492-0.095-0.982-0.143-1.472c-0.076-0.801-0.156-1.601-0.235-2.401c-0.052-0.52-0.104-1.039-0.158-1.559
	c-0.11-1.086-0.224-2.172-0.34-3.257c-0.062-0.572-0.124-1.144-0.187-1.716c-0.076-0.68-0.15-1.359-0.227-2.038
	c-0.07-0.616-0.139-1.233-0.209-1.849c-0.118-1.005-0.235-2.011-0.355-3.015c-0.074-0.616-0.148-1.231-0.224-1.847
	c-0.081-0.662-0.163-1.324-0.245-1.985c-0.111-0.88-0.223-1.76-0.337-2.64c-0.093-0.719-0.185-1.439-0.281-2.159
	c-0.085-0.647-0.172-1.294-0.259-1.94c-0.072-0.535-0.146-1.069-0.219-1.604c-0.164-1.19-0.331-2.379-0.501-3.567l-0.19-1.336
	c-0.111-0.764-0.222-1.528-0.335-2.291l-0.121-0.81c-0.217-1.45-0.438-2.898-0.663-4.345l-0.149-0.968
	c-0.398-2.535-0.81-5.066-1.237-7.592l-0.145-0.862c-0.44-2.599-0.896-5.193-1.365-7.782l-0.08-0.433
	c-0.491-2.704-0.998-5.402-1.521-8.096l-0.001-0.01c-0.276-1.42-0.558-2.838-0.842-4.255l-0.212-1.046
	c-0.219-1.083-0.441-2.166-0.664-3.248l-0.245-1.175c-0.22-1.047-0.441-2.094-0.664-3.14l-0.251-1.173
	c-0.25-1.155-0.501-2.309-0.756-3.462l-0.159-0.717c-0.647-2.921-1.314-5.835-2-8.742l-0.034-0.145
	c-0.324-1.375-0.653-2.75-0.986-4.123l-0.137-0.563c-0.319-1.312-0.643-2.623-0.969-3.932l-0.077-0.311
	c-76.098-304.587-351.554-530.217-679.715-530.217c-386.919,0-700.58,313.66-700.58,700.579
	c0,275.756,225.894,725.334,448.313,960.904C552.837,1830.597,425.447,1889.396,425.447,1957.32z"/>
<path style="fill:#A59BCC;" d="M1691.183,840.986c0-1.22-0.006-2.439-0.011-3.657l-0.008-1.15c-0.01-1.259-0.021-2.517-0.037-3.775
	l-0.01-0.795c-0.016-1.083-0.032-2.165-0.053-3.246l-0.021-1.134c-0.024-1.252-0.053-2.503-0.083-3.753l-0.026-1.002
	c-0.026-1.009-0.055-2.016-0.086-3.023l-0.037-1.181c-0.039-1.225-0.081-2.448-0.128-3.672l-0.045-1.165
	c-0.038-0.993-0.08-1.987-0.123-2.979l-0.045-1.073c-0.056-1.21-0.113-2.419-0.173-3.629l-0.067-1.304
	c-0.05-0.974-0.102-1.947-0.156-2.921l-0.059-1.028c-0.068-1.214-0.143-2.428-0.219-3.64l-0.079-1.259
	c-0.07-1.088-0.143-2.177-0.218-3.264l-0.076-1.083c-0.075-1.065-0.153-2.131-0.233-3.196l-0.101-1.324
	c-0.09-1.168-0.182-2.337-0.277-3.503l-0.1-1.21c-0.076-0.894-0.152-1.788-0.231-2.682c-0.042-0.486-0.085-0.972-0.128-1.458
	c-0.102-1.125-0.205-2.25-0.311-3.374c-0.047-0.492-0.095-0.982-0.143-1.472c-0.076-0.801-0.156-1.601-0.235-2.401
	c-0.052-0.52-0.104-1.039-0.158-1.559c-0.11-1.086-0.224-2.172-0.34-3.257c-0.062-0.572-0.124-1.144-0.187-1.716
	c-0.076-0.68-0.15-1.359-0.227-2.038c-0.07-0.616-0.139-1.233-0.209-1.849c-0.118-1.005-0.235-2.011-0.355-3.015
	c-0.074-0.616-0.148-1.231-0.224-1.847c-0.081-0.662-0.163-1.324-0.245-1.985c-0.111-0.88-0.223-1.76-0.337-2.64
	c-0.093-0.719-0.185-1.439-0.281-2.159c-0.085-0.647-0.172-1.294-0.259-1.94c-0.072-0.535-0.146-1.069-0.219-1.604
	c-0.164-1.19-0.331-2.379-0.501-3.567l-0.19-1.336c-0.111-0.764-0.222-1.528-0.335-2.291l-0.121-0.81
	c-0.217-1.45-0.438-2.898-0.663-4.345l-0.149-0.968c-0.398-2.535-0.81-5.066-1.237-7.592l-0.145-0.862
	c-0.44-2.599-0.896-5.193-1.365-7.782l-0.08-0.433c-0.491-2.704-0.998-5.402-1.521-8.096l-0.001-0.01
	c-0.276-1.42-0.558-2.838-0.842-4.255l-0.212-1.046c-0.219-1.083-0.441-2.166-0.664-3.248l-0.245-1.175
	c-0.22-1.047-0.441-2.094-0.664-3.14l-0.251-1.173c-0.25-1.155-0.501-2.309-0.756-3.462l-0.159-0.717
	c-0.647-2.921-1.314-5.835-2-8.742l-0.034-0.145c-0.324-1.375-0.653-2.75-0.986-4.123l-0.137-0.563
	c-0.319-1.312-0.643-2.623-0.969-3.932l-0.077-0.311c-76.098-304.587-351.554-530.217-679.715-530.217
	c-386.919,0-700.58,313.66-700.58,700.579c0,275.756,225.894,725.334,448.313,960.904c23.941,25.357,47.842,48.234,71.417,68.148
	c49.836,42.099,98.215,70.949,142.432,81.99l0.377,0.095c0.501,0.124,1.003,0.246,1.504,0.365l0.571,0.136l1.415,0.329l0.597,0.133
	c0.724,0.162,1.447,0.318,2.166,0.471l1.14,0.238l0.957,0.192l1.128,0.221l0.973,0.184l1.165,0.211l0.876,0.156
	c0.671,0.116,1.342,0.229,2.012,0.337l0.013,0.002c1.946,0.313,3.883,0.587,5.811,0.825l0.33,0.04
	c0.553,0.067,1.106,0.132,1.657,0.191l0.213,0.024c1.249,0.136,2.491,0.256,3.732,0.359l0.401,0.032l1.427,0.108l0.464,0.032
	c0.514,0.035,1.026,0.067,1.539,0.097l0.275,0.017c0.603,0.033,1.203,0.063,1.802,0.089l0.364,0.014l1.408,0.05l0.542,0.015
	l1.278,0.027l0.542,0.009c0.581,0.007,1.16,0.013,1.739,0.013c1.869,0,3.751-0.045,5.646-0.133c0.948-0.045,1.899-0.101,2.854-0.166
	c14.315-0.993,29.366-4.446,45.016-10.143c1.043-0.381,2.089-0.771,3.138-1.17c3.67-1.399,7.372-2.92,11.104-4.559
	c1.066-0.469,2.135-0.946,3.207-1.435c2.677-1.219,5.37-2.498,8.079-3.836c2.707-1.339,5.429-2.736,8.167-4.192
	c0.546-0.291,1.094-0.585,1.643-0.88c2.193-1.184,4.396-2.404,6.607-3.661c1.657-0.942,3.32-1.905,4.988-2.89
	c1.111-0.655,2.225-1.32,3.341-1.994c0.559-0.337,1.116-0.675,1.675-1.017c2.236-1.366,4.479-2.768,6.732-4.203
	c3.376-2.155,6.771-4.39,10.182-6.702c1.136-0.771,2.275-1.55,3.416-2.338c0.569-0.394,1.141-0.789,1.712-1.188
	c7.425-5.177,14.921-10.715,22.481-16.596c8.142-6.334,16.355-13.064,24.626-20.172l0.879-0.757c0.89-0.768,1.779-1.537,2.671-2.313
	c0.592-0.516,1.185-1.033,1.776-1.552c1.186-1.038,2.371-2.084,3.56-3.138c0.593-0.526,1.188-1.055,1.781-1.586
	c2.377-2.121,4.759-4.272,7.145-6.454c2.981-2.726,5.969-5.499,8.962-8.316c1.197-1.127,2.396-2.261,3.594-3.402
	c1.199-1.142,2.398-2.289,3.601-3.444c1.8-1.733,3.603-3.482,5.407-5.248c1.203-1.176,2.407-2.359,3.612-3.551
	c1.203-1.189,2.408-2.387,3.614-3.592c1.205-1.204,2.411-2.415,3.619-3.633s2.415-2.442,3.623-3.674
	c0.604-0.615,1.209-1.232,1.813-1.852c1.813-1.857,3.628-3.729,5.443-5.616c3.025-3.145,6.055-6.331,9.086-9.558l1.085-1.156
	c0.852-0.908,1.702-1.819,2.555-2.734c6.067-6.517,12.142-13.191,18.222-20.019c1.823-2.048,3.647-4.11,5.473-6.185
	c9.73-11.067,19.466-22.516,29.188-34.313c1.215-1.475,2.43-2.954,3.644-4.439c1.215-1.486,2.43-2.977,3.644-4.473
	c1.213-1.496,2.428-2.997,3.64-4.504c3.034-3.767,6.065-7.566,9.093-11.397c1.212-1.533,2.422-3.07,3.633-4.613
	c3.631-4.628,7.257-9.301,10.879-14.018c1.206-1.571,2.413-3.148,3.618-4.73c2.412-3.163,4.819-6.346,7.226-9.548
	c1.202-1.601,2.405-3.205,3.606-4.815c9.61-12.879,19.171-26.051,28.659-39.483c1.187-1.68,2.372-3.362,3.555-5.049
	c17.759-25.308,35.256-51.517,52.358-78.41c1.71-2.689,3.415-5.386,5.117-8.089c4.539-7.208,9.049-14.463,13.527-21.761
	c1.118-1.824,2.236-3.652,3.352-5.482c3.905-6.404,7.783-12.841,11.636-19.307c1.651-2.771,3.299-5.549,4.939-8.33
	c2.735-4.637,5.457-9.288,8.163-13.952c1.624-2.798,3.244-5.603,4.857-8.41c1.076-1.872,2.147-3.746,3.22-5.622
	c1.069-1.877,2.139-3.754,3.204-5.635c0.534-0.939,1.065-1.881,1.598-2.821c1.594-2.823,3.185-5.65,4.769-8.481
	c3.694-6.606,7.359-13.234,10.989-19.883c1.557-2.849,3.105-5.702,4.649-8.558c3.089-5.711,6.151-11.437,9.188-17.174
	c1.519-2.868,3.029-5.74,4.534-8.614c1.004-1.916,2.005-3.832,3.003-5.751c1.995-3.836,3.979-7.678,5.949-11.523
	c0.493-0.961,0.984-1.922,1.477-2.884c0.981-1.924,1.961-3.849,2.937-5.774c0.489-0.962,0.976-1.925,1.463-2.889
	c0.974-1.926,1.942-3.854,2.909-5.782c1.449-2.892,2.894-5.785,4.329-8.681c0.478-0.965,0.956-1.931,1.433-2.896
	c0.954-1.931,1.905-3.862,2.852-5.795c0.474-0.966,0.947-1.933,1.418-2.898c0.944-1.934,1.886-3.867,2.822-5.801
	c1.405-2.901,2.804-5.804,4.194-8.707c1.39-2.903,2.772-5.808,4.148-8.713c0.458-0.968,0.916-1.937,1.372-2.904
	c0.913-1.938,1.821-3.875,2.729-5.813c0.452-0.969,0.905-1.938,1.356-2.906c1.354-2.907,2.699-5.813,4.036-8.721
	c0.892-1.938,1.78-3.877,2.664-5.815s1.765-3.877,2.643-5.815c0.876-1.938,1.75-3.876,2.618-5.814
	c0.87-1.938,1.736-3.877,2.597-5.814c0.862-1.938,1.72-3.876,2.574-5.814c1.282-2.906,2.556-5.813,3.819-8.718
	c0.842-1.938,1.681-3.873,2.516-5.81c0.417-0.968,0.833-1.937,1.249-2.904c0.831-1.937,1.657-3.871,2.48-5.806
	c0.823-1.936,1.642-3.871,2.456-5.805c1.63-3.868,3.243-7.733,4.84-11.597c0.398-0.966,0.798-1.932,1.194-2.897
	c0.794-1.932,1.585-3.861,2.371-5.791c1.966-4.823,3.903-9.643,5.815-14.456c0.765-1.926,1.525-3.851,2.281-5.773
	c0.378-0.962,0.755-1.924,1.131-2.885c1.504-3.846,2.99-7.687,4.458-11.522c2.938-7.673,5.804-15.328,8.596-22.961
	c1.396-3.816,2.774-7.626,4.133-11.431c0.68-1.902,1.355-3.803,2.026-5.702c0.67-1.9,1.335-3.797,1.995-5.693
	c0.991-2.844,1.972-5.685,2.94-8.521c1.293-3.782,2.566-7.557,3.82-11.324c0.627-1.884,1.249-3.766,1.866-5.646
	c0.926-2.82,1.84-5.635,2.742-8.446c10.84-33.731,20.057-66.804,27.416-98.848c1.84-8.011,3.563-15.957,5.167-23.834
	c3.742-18.378,6.832-36.375,9.221-53.915c3.87-28.398,5.904-55.601,5.904-81.295L1691.183,840.986z"/>
<path style="fill:#EFE1DA;" d="M1462.508,821.56c-0.002-1.104-0.007-2.208-0.017-3.31l-0.012-1.331
	c-0.012-1.011-0.024-2.022-0.041-3.031l-0.015-0.873c-0.023-1.235-0.052-2.47-0.085-3.703l-0.035-1.262
	c-0.028-0.946-0.058-1.891-0.091-2.836l-0.039-1.107c-0.046-1.238-0.097-2.476-0.152-3.713l-0.051-1.055
	c-0.047-0.975-0.095-1.95-0.146-2.923l-0.063-1.157c-0.069-1.229-0.143-2.457-0.221-3.684l-0.063-0.944
	c-0.065-0.999-0.135-1.997-0.206-2.993l-0.084-1.143c-0.091-1.238-0.187-2.475-0.288-3.709l-0.043-0.5
	c-0.094-1.128-0.192-2.255-0.294-3.381l-0.106-1.148c-0.1-1.077-0.203-2.151-0.312-3.225l-0.063-0.638
	c-0.127-1.255-0.26-2.508-0.397-3.76l-0.108-0.977c-0.116-1.045-0.236-2.089-0.36-3.132l-0.095-0.817
	c-0.15-1.247-0.306-2.492-0.464-3.736l-0.119-0.91c-0.132-1.01-0.265-2.017-0.403-3.025l-0.133-0.971
	c-0.174-1.248-0.351-2.494-0.534-3.739l-0.096-0.64c-0.163-1.097-0.328-2.192-0.5-3.287l-0.13-0.835
	c-0.407-2.587-0.836-5.167-1.284-7.74l-0.122-0.695c-0.456-2.591-0.934-5.176-1.433-7.752l-0.133-0.685
	c-0.234-1.196-0.472-2.39-0.713-3.582l-0.055-0.271c-0.27-1.322-0.544-2.642-0.825-3.959l-0.079-0.372
	c-0.266-1.24-0.534-2.477-0.81-3.713l-0.063-0.291c-0.598-2.684-1.219-5.358-1.861-8.023l-0.056-0.229
	c-0.652-2.7-1.328-5.391-2.026-8.072l-0.018-0.063c-0.252-0.963-0.508-1.925-0.765-2.887l-0.214-0.797
	c-0.202-0.747-0.405-1.495-0.61-2.24l-0.182-0.667c-0.547-1.976-1.106-3.947-1.678-5.913l-0.133-0.458
	c-0.259-0.885-0.521-1.771-0.784-2.655l-0.102-0.346c-0.607-2.033-1.229-4.062-1.865-6.083l-0.055-0.173
	c-60.154-191.421-238.997-330.266-450.274-330.266c-79.816,0-155.004,19.817-220.912,54.797
	c-118.07,62.664-206.362,173.991-238.136,307.246c-8.406,35.251-12.857,72.037-12.857,109.862
	c0,226.49,159.56,415.71,372.402,461.392l0.635,0.136c0.719,0.153,1.437,0.305,2.158,0.455l0.723,0.149
	c0.691,0.143,1.383,0.284,2.074,0.424l0.772,0.156c0.692,0.138,1.385,0.274,2.079,0.41l0.751,0.146
	c0.673,0.131,1.347,0.26,2.022,0.387l0.844,0.161c0.919,0.172,1.84,0.342,2.761,0.509l0.053,0.01
	c3.543,0.642,7.101,1.243,10.672,1.806l0.277,0.044c1.055,0.165,2.11,0.326,3.167,0.484l0.495,0.074
	c1.072,0.159,2.146,0.316,3.22,0.468l0.239,0.034c2.347,0.332,4.701,0.646,7.061,0.942l0.504,0.063
	c0.976,0.122,1.952,0.241,2.929,0.356l0.733,0.086c0.951,0.111,1.903,0.22,2.854,0.325l0.643,0.071
	c2.333,0.255,4.669,0.493,7.011,0.714l0.521,0.048c0.944,0.088,1.888,0.173,2.833,0.255l1.023,0.088
	c0.853,0.072,1.707,0.143,2.563,0.21l0.877,0.07c0.976,0.076,1.951,0.148,2.928,0.218l0.559,0.04c1.151,0.081,2.305,0.158,3.46,0.23
	l0.696,0.042c0.908,0.056,1.814,0.109,2.723,0.16l1.112,0.06c0.806,0.043,1.611,0.084,2.417,0.123l1.081,0.051
	c0.894,0.041,1.787,0.08,2.682,0.115l0.771,0.032c1.166,0.045,2.333,0.086,3.5,0.123l0.438,0.013
	c0.986,0.03,1.974,0.057,2.961,0.081l1.195,0.026c0.77,0.017,1.541,0.032,2.313,0.046l1.226,0.019
	c0.793,0.012,1.587,0.021,2.381,0.028l1.132,0.011c1.142,0.009,2.288,0.013,3.434,0.013c2.036,0,4.069-0.012,6.1-0.038
	c2.029-0.025,4.056-0.064,6.08-0.115c1.013-0.026,2.024-0.055,3.033-0.087c2.022-0.063,4.038-0.141,6.052-0.229
	c7.05-0.313,14.059-0.78,21.025-1.398c1.99-0.178,3.977-0.366,5.959-0.567c0.992-0.101,1.982-0.204,2.973-0.312
	c1.979-0.214,3.953-0.439,5.926-0.678c2.959-0.356,5.907-0.741,8.849-1.152c1.96-0.275,3.918-0.561,5.87-0.859
	c0.976-0.149,1.951-0.301,2.927-0.457c2.922-0.466,5.837-0.957,8.741-1.476c3.874-0.692,7.73-1.431,11.57-2.217
	c1.92-0.393,3.836-0.798,5.748-1.213c6.688-1.457,13.326-3.056,19.906-4.792c1.881-0.496,3.756-1.004,5.628-1.522
	c2.807-0.778,5.603-1.582,8.387-2.411c1.857-0.552,3.71-1.115,5.557-1.689c2.771-0.862,5.53-1.748,8.278-2.659
	c0.917-0.305,1.831-0.611,2.745-0.92c2.74-0.928,5.472-1.88,8.188-2.856c9.967-3.579,19.778-7.484,29.421-11.703
	c1.753-0.768,3.501-1.545,5.243-2.332c1.742-0.788,3.479-1.586,5.209-2.394c1.73-0.809,3.455-1.627,5.175-2.455
	c25.788-12.426,50.274-27.129,73.195-43.846c7.641-5.572,15.106-11.369,22.391-17.38c0.728-0.601,1.454-1.204,2.18-1.81
	c5.797-4.843,11.476-9.822,17.032-14.933c0.695-0.64,1.387-1.279,2.077-1.923c92.553-86.157,150.44-209.058,150.44-345.479
	L1462.508,821.56z"/>
<path style="fill:#ACD7ED;" d="M1226.318,1811.921c-1.815,1.887-3.631,3.759-5.443,5.616c-0.604,0.619-1.209,1.236-1.813,1.852
	c-1.208,1.231-2.415,2.456-3.623,3.674s-2.414,2.429-3.619,3.633c-1.206,1.205-2.411,2.402-3.614,3.592
	c-1.205,1.191-2.409,2.375-3.612,3.551c-1.805,1.766-3.607,3.515-5.407,5.248c-1.202,1.155-2.401,2.303-3.601,3.444
	c-1.198,1.142-2.396,2.275-3.594,3.402c-2.993,2.817-5.98,5.591-8.962,8.316c-2.386,2.182-4.768,4.333-7.145,6.454
	c-0.594,0.531-1.188,1.06-1.781,1.586c-1.188,1.054-2.374,2.1-3.56,3.138c-0.592,0.519-1.185,1.036-1.776,1.552
	c-0.892,0.775-1.781,1.545-2.671,2.313c96.499,18.134,160.881,50.775,160.881,88.029c0,56.977-150.601,103.166-336.373,103.166
	c-185.774,0-336.373-46.189-336.373-103.166c0-36.561,62.007-68.678,155.524-87.002c-23.575-19.914-47.477-42.791-71.417-68.148
	c-185.501,28.427-312.891,87.226-312.891,155.15c0,95.729,253.029,173.334,565.157,173.334
	c312.127,0,565.157-77.604,565.157-173.334c0-68.701-130.318-128.066-319.272-156.113l-1.085,1.156
	C1232.373,1805.59,1229.344,1808.776,1226.318,1811.921z"/>
<path style="fill:#9A8EC2;" d="M1691.183,840.986c0-1.22-0.006-2.439-0.011-3.657l-0.008-1.15c-0.01-1.259-0.021-2.517-0.037-3.775
	l-0.01-0.795c-0.016-1.083-0.032-2.165-0.053-3.246l-0.021-1.134c-0.024-1.252-0.053-2.503-0.083-3.753l-0.026-1.002
	c-0.026-1.009-0.055-2.016-0.086-3.023l-0.037-1.181c-0.039-1.225-0.081-2.448-0.128-3.672l-0.045-1.165
	c-0.038-0.993-0.08-1.987-0.123-2.979l-0.045-1.073c-0.056-1.21-0.113-2.419-0.173-3.629l-0.067-1.304
	c-0.05-0.974-0.102-1.947-0.156-2.921l-0.059-1.028c-0.068-1.214-0.143-2.428-0.219-3.64l-0.079-1.259
	c-0.07-1.088-0.143-2.177-0.218-3.264l-0.076-1.083c-0.075-1.065-0.153-2.131-0.233-3.196l-0.101-1.324
	c-0.09-1.168-0.182-2.337-0.277-3.503l-0.1-1.21c-0.076-0.894-0.152-1.788-0.231-2.682c-0.042-0.486-0.085-0.972-0.128-1.458
	c-0.102-1.125-0.205-2.25-0.311-3.374c-0.047-0.492-0.095-0.982-0.143-1.472c-0.076-0.801-0.156-1.601-0.235-2.401
	c-0.052-0.52-0.104-1.039-0.158-1.559c-0.11-1.086-0.224-2.172-0.34-3.257c-0.062-0.572-0.124-1.144-0.187-1.716
	c-0.076-0.68-0.15-1.359-0.227-2.038c-0.07-0.616-0.139-1.233-0.209-1.849c-0.118-1.005-0.235-2.011-0.355-3.015
	c-0.074-0.616-0.148-1.231-0.224-1.847c-0.081-0.662-0.163-1.324-0.245-1.985c-0.111-0.88-0.223-1.76-0.337-2.64
	c-0.093-0.719-0.185-1.439-0.281-2.159c-0.085-0.647-0.172-1.294-0.259-1.94c-0.072-0.535-0.146-1.069-0.219-1.604
	c-0.164-1.19-0.331-2.379-0.501-3.567l-0.19-1.336c-0.111-0.764-0.222-1.528-0.335-2.291l-0.121-0.81
	c-0.217-1.45-0.438-2.898-0.663-4.345l-0.149-0.968c-0.398-2.535-0.81-5.066-1.237-7.592l-0.145-0.862
	c-0.44-2.599-0.896-5.193-1.365-7.782l-0.08-0.433c-0.491-2.704-0.998-5.402-1.521-8.096l-0.001-0.01
	c-37.551-193.313-154.601-358.225-315.733-459.391c97.605,120.398,156.12,273.776,156.12,440.844
	c0,386.919-461.37,1116.055-700.579,1116.055c-33.99,0-71.331-12.977-110.503-36.201
	c90.466,103.573,182.104,174.705,259.448,187.136l0.013,0.002c1.946,0.313,3.883,0.587,5.811,0.825l0.33,0.04
	c0.553,0.067,1.106,0.132,1.657,0.191l0.213,0.024c1.249,0.136,2.491,0.256,3.732,0.359l0.401,0.032l1.427,0.108l0.464,0.032
	c0.514,0.035,1.026,0.067,1.539,0.097l0.275,0.017c0.603,0.033,1.203,0.063,1.802,0.089l0.364,0.014l1.408,0.05l0.542,0.015
	l1.278,0.027l0.542,0.009c0.581,0.007,1.16,0.013,1.739,0.013c1.869,0,3.751-0.045,5.646-0.133c0.948-0.045,1.899-0.101,2.854-0.166
	c14.315-0.993,29.366-4.446,45.016-10.143c1.043-0.381,2.089-0.771,3.138-1.17c3.67-1.399,7.372-2.92,11.104-4.559
	c1.066-0.469,2.135-0.946,3.207-1.435c2.677-1.219,5.37-2.498,8.079-3.836c2.707-1.339,5.429-2.736,8.167-4.192
	c0.546-0.291,1.094-0.585,1.643-0.88c2.193-1.184,4.396-2.404,6.607-3.661c1.657-0.942,3.32-1.905,4.988-2.89
	c1.111-0.655,2.225-1.32,3.341-1.994c0.559-0.337,1.116-0.675,1.675-1.017c2.236-1.366,4.479-2.768,6.732-4.203
	c3.376-2.155,6.771-4.39,10.182-6.702c1.136-0.771,2.275-1.55,3.416-2.338c0.569-0.394,1.141-0.789,1.712-1.188
	c7.425-5.177,14.921-10.715,22.481-16.596c8.142-6.334,16.355-13.064,24.626-20.172l0.879-0.757c0.89-0.768,1.779-1.537,2.671-2.313
	c0.592-0.516,1.185-1.033,1.776-1.552c1.186-1.038,2.371-2.084,3.56-3.138c0.593-0.526,1.188-1.055,1.781-1.586
	c2.377-2.121,4.759-4.272,7.145-6.454c2.981-2.726,5.969-5.499,8.962-8.316c1.197-1.127,2.396-2.261,3.594-3.402
	c1.199-1.142,2.398-2.289,3.601-3.444c1.8-1.733,3.603-3.482,5.407-5.248c1.203-1.176,2.407-2.359,3.612-3.551
	c1.203-1.189,2.408-2.387,3.614-3.592c1.205-1.204,2.411-2.415,3.619-3.633s2.415-2.442,3.623-3.674
	c0.604-0.615,1.209-1.232,1.813-1.852c1.813-1.857,3.628-3.729,5.443-5.616c3.025-3.145,6.055-6.331,9.086-9.558l1.085-1.156
	c0.852-0.908,1.702-1.819,2.555-2.734c6.067-6.517,12.142-13.191,18.222-20.019c1.823-2.048,3.647-4.11,5.473-6.185
	c9.73-11.067,19.466-22.516,29.188-34.313c1.215-1.475,2.43-2.954,3.644-4.439c1.215-1.486,2.43-2.977,3.644-4.473
	c1.213-1.496,2.428-2.997,3.64-4.504c3.034-3.767,6.065-7.566,9.093-11.397c1.212-1.533,2.422-3.07,3.633-4.613
	c3.631-4.628,7.257-9.301,10.879-14.018c1.206-1.571,2.413-3.148,3.618-4.73c2.412-3.163,4.819-6.346,7.226-9.548
	c1.202-1.601,2.405-3.205,3.606-4.815c9.61-12.879,19.171-26.051,28.659-39.483c1.187-1.68,2.372-3.362,3.555-5.049
	c17.759-25.308,35.256-51.517,52.358-78.41c1.71-2.689,3.415-5.386,5.117-8.089c4.539-7.208,9.049-14.463,13.527-21.761
	c1.118-1.824,2.236-3.652,3.352-5.482c3.905-6.404,7.783-12.841,11.636-19.307c1.651-2.771,3.299-5.549,4.939-8.33
	c2.735-4.637,5.457-9.288,8.163-13.952c1.624-2.798,3.244-5.603,4.857-8.41c1.076-1.872,2.147-3.746,3.22-5.622
	c1.069-1.877,2.139-3.754,3.204-5.635c0.534-0.939,1.065-1.881,1.598-2.821c1.594-2.823,3.184-5.65,4.769-8.481
	c3.694-6.606,7.359-13.234,10.989-19.883c1.557-2.849,3.105-5.702,4.649-8.558c3.089-5.711,6.151-11.437,9.188-17.174
	c1.519-2.868,3.029-5.74,4.534-8.614c1.004-1.916,2.005-3.832,3.003-5.751c1.995-3.836,3.979-7.678,5.949-11.523
	c0.493-0.961,0.984-1.922,1.477-2.884c0.981-1.924,1.961-3.849,2.937-5.774c0.489-0.962,0.976-1.925,1.463-2.889
	c0.974-1.926,1.942-3.854,2.909-5.782c1.449-2.892,2.894-5.785,4.329-8.681c0.478-0.965,0.956-1.931,1.433-2.896
	c0.954-1.931,1.905-3.862,2.852-5.795c0.474-0.966,0.947-1.933,1.418-2.898c0.944-1.934,1.886-3.867,2.822-5.801
	c1.405-2.901,2.804-5.804,4.194-8.707c1.39-2.903,2.772-5.808,4.148-8.713c0.458-0.968,0.916-1.937,1.372-2.904
	c0.913-1.938,1.821-3.875,2.729-5.813c0.452-0.969,0.905-1.938,1.356-2.906c1.354-2.907,2.699-5.813,4.036-8.721
	c0.892-1.938,1.78-3.877,2.664-5.815s1.765-3.877,2.643-5.815c0.876-1.938,1.75-3.876,2.618-5.814
	c0.87-1.938,1.736-3.877,2.597-5.814c0.862-1.938,1.72-3.876,2.574-5.814c1.282-2.906,2.554-5.813,3.819-8.718
	c0.842-1.938,1.681-3.873,2.516-5.81c0.417-0.968,0.833-1.937,1.249-2.904c0.831-1.937,1.657-3.871,2.48-5.806
	c0.823-1.936,1.642-3.871,2.456-5.805c1.63-3.868,3.243-7.733,4.84-11.597c0.398-0.966,0.798-1.932,1.194-2.897
	c0.794-1.932,1.585-3.861,2.371-5.791c1.966-4.823,3.903-9.643,5.815-14.456c0.765-1.926,1.525-3.851,2.281-5.773
	c0.378-0.962,0.755-1.924,1.131-2.885c1.504-3.846,2.99-7.687,4.458-11.522c2.938-7.673,5.804-15.328,8.596-22.961
	c1.396-3.816,2.774-7.626,4.133-11.431c0.68-1.902,1.355-3.803,2.026-5.702c0.67-1.9,1.335-3.797,1.995-5.693
	c0.991-2.844,1.972-5.685,2.94-8.521c1.293-3.782,2.566-7.557,3.82-11.324c0.627-1.884,1.249-3.766,1.866-5.646
	c0.925-2.82,1.84-5.635,2.742-8.446c10.84-33.731,20.057-66.804,27.416-98.848c1.84-8.011,3.563-15.957,5.167-23.834
	c3.742-18.378,6.832-36.375,9.221-53.915c3.87-28.398,5.904-55.601,5.904-81.295L1691.183,840.986z"/>
<path style="fill:#C3BCDE;" d="M769.692,404.927c13.225-11.148,27.069-21.361,41.648-30.115
	c22.414-13.455,44.519-30.499,50.153-57.638c12.287-59.184-58.888-64.046-100.204-61.345
	c-118.43,7.744-215.963,82.295-284.408,175.635c-17.447,23.793-33.004,48.808-46.536,74.246
	c-29.579,55.61-59.379,140.319-11.044,194.633c27.318,30.698,76.853,32.69,112.255,11.829
	C563.331,578.917,651.622,467.59,769.692,404.927z"/>
<path style="fill:#C3BCDE;" d="M444.997,804.288c-4.464-11.04,0.338-23.828-4.029-34.88c-10.023-25.364-46.139-17.196-62.35-3.773
	c-7.494,6.206-14.565,13.035-20.121,21.023c-14.183,20.393-17.309,46.574-15.98,71.378c1.125,20.992,6.977,44.529,23.88,58.539
	c25.264,20.937,64.561,17.479,94.302,10.487c32.212-7.573,50.137-27.734,54.11-60.793
	C521.55,810.168,460.257,842.031,444.997,804.288z"/>
<path style="fill:#EBD2C6;" d="M1192.045,395.194c52.865,76.234,83.871,168.775,83.871,268.571
	c0,260.626-211.28,471.905-471.906,471.905c-72.065,0-140.343-16.18-201.441-45.064c69.881,100.773,177.987,173.031,303.35,195.753
	l0.053,0.01c3.543,0.642,7.101,1.243,10.672,1.806l0.277,0.044c1.055,0.165,2.11,0.326,3.167,0.484l0.495,0.074
	c1.072,0.159,2.146,0.316,3.22,0.468l0.239,0.034c2.347,0.332,4.701,0.646,7.061,0.942l0.504,0.063
	c0.976,0.122,1.952,0.241,2.929,0.356l0.733,0.086c0.951,0.111,1.903,0.22,2.854,0.325l0.643,0.071
	c2.333,0.255,4.669,0.493,7.011,0.714l0.521,0.048c0.944,0.088,1.888,0.173,2.833,0.255l1.023,0.088
	c0.853,0.072,1.707,0.143,2.563,0.21l0.877,0.07c0.976,0.076,1.951,0.148,2.928,0.218l0.559,0.04c1.151,0.081,2.305,0.158,3.46,0.23
	l0.696,0.042c0.908,0.056,1.814,0.109,2.723,0.16l1.112,0.06c0.806,0.043,1.611,0.084,2.417,0.123l1.081,0.051
	c0.894,0.041,1.787,0.08,2.682,0.115l0.771,0.032c1.166,0.045,2.333,0.086,3.5,0.123l0.438,0.013
	c0.986,0.03,1.974,0.057,2.961,0.081l1.195,0.026c0.77,0.017,1.541,0.032,2.313,0.046l1.226,0.019
	c0.793,0.012,1.587,0.021,2.381,0.028l1.132,0.011c1.142,0.009,2.288,0.013,3.434,0.013c2.036,0,4.069-0.012,6.1-0.038
	c2.029-0.025,4.056-0.064,6.08-0.115c1.013-0.026,2.024-0.055,3.033-0.087c2.022-0.063,4.038-0.141,6.052-0.229
	c7.05-0.313,14.059-0.78,21.025-1.398c1.99-0.178,3.977-0.366,5.959-0.567c0.992-0.101,1.982-0.204,2.973-0.312
	c1.979-0.214,3.953-0.439,5.926-0.678c2.959-0.356,5.907-0.741,8.849-1.152c1.96-0.275,3.918-0.561,5.87-0.859
	c0.976-0.149,1.951-0.301,2.927-0.457c2.922-0.466,5.837-0.957,8.741-1.476c3.874-0.692,7.73-1.431,11.57-2.217
	c1.92-0.393,3.836-0.798,5.748-1.213c6.688-1.457,13.326-3.056,19.906-4.792c1.881-0.496,3.756-1.004,5.628-1.522
	c2.807-0.778,5.603-1.582,8.387-2.411c1.857-0.552,3.71-1.115,5.557-1.689c2.771-0.862,5.53-1.748,8.278-2.659
	c0.917-0.305,1.831-0.611,2.745-0.92c2.74-0.928,5.472-1.88,8.188-2.856c9.967-3.579,19.778-7.484,29.421-11.703
	c1.753-0.768,3.501-1.545,5.243-2.332c1.742-0.788,3.479-1.586,5.209-2.394c1.73-0.809,3.455-1.627,5.175-2.455
	c25.788-12.426,50.274-27.129,73.195-43.846c7.641-5.572,15.106-11.369,22.391-17.38c0.728-0.601,1.454-1.204,2.18-1.81
	c5.797-4.843,11.476-9.822,17.032-14.933c0.695-0.64,1.387-1.279,2.077-1.923c92.553-86.157,150.44-209.058,150.44-345.479
	l-0.002-0.474c-0.002-1.104-0.007-2.208-0.017-3.31l-0.012-1.331c-0.012-1.011-0.024-2.022-0.041-3.031l-0.015-0.873
	c-0.023-1.235-0.052-2.47-0.085-3.703l-0.035-1.262c-0.028-0.946-0.058-1.891-0.091-2.836l-0.039-1.107
	c-0.046-1.238-0.097-2.476-0.152-3.713l-0.051-1.055c-0.047-0.975-0.095-1.95-0.146-2.923l-0.063-1.157
	c-0.069-1.229-0.143-2.457-0.221-3.684l-0.063-0.944c-0.065-0.999-0.135-1.997-0.206-2.993l-0.084-1.143
	c-0.091-1.238-0.187-2.475-0.288-3.709l-0.043-0.5c-0.094-1.128-0.192-2.255-0.294-3.381l-0.106-1.148
	c-0.1-1.077-0.203-2.151-0.312-3.225l-0.063-0.638c-0.127-1.255-0.26-2.508-0.397-3.76l-0.108-0.977
	c-0.116-1.045-0.236-2.089-0.36-3.132l-0.095-0.817c-0.15-1.247-0.306-2.492-0.464-3.736l-0.119-0.91
	c-0.132-1.01-0.265-2.017-0.403-3.025l-0.133-0.971c-0.174-1.248-0.351-2.494-0.534-3.739l-0.096-0.64
	c-0.163-1.097-0.328-2.192-0.5-3.287l-0.13-0.835c-0.407-2.587-0.836-5.167-1.284-7.74l-0.122-0.695
	c-0.456-2.591-0.934-5.176-1.433-7.752l-0.133-0.685c-0.234-1.196-0.472-2.39-0.713-3.582l-0.055-0.271
	c-0.27-1.322-0.544-2.642-0.825-3.959l-0.079-0.372c-0.266-1.24-0.534-2.477-0.81-3.713l-0.063-0.291
	c-0.598-2.684-1.219-5.358-1.861-8.023l-0.056-0.229c-0.652-2.7-1.328-5.391-2.026-8.072l-0.018-0.063
	C1411.748,566.444,1316.925,454.233,1192.045,395.194z"/>
<path style="fill:#FAF1ED;" d="M673.078,530.456c-0.833,0.999-1.66,2.004-2.477,3.017c-26.8,33.152-66.698,99.08-35.797,140.367
	c16.458,21.99,52.798,22.356,73.044,3.793c21.165-19.405,31.938-49.531,51.117-71.155c12.394-13.973,26.572-26.361,42.085-36.763
	c31.8-21.321,70.309-33.698,89.621-69.68c10.564-19.684,2.387-43.794-16.927-54.404c-23.897-13.13-55.686-3.29-79.72,4.355
	C747.24,464.866,704.593,492.728,673.078,530.456z"/>
<path style="fill:#FAF1ED;" d="M639.535,794.101c18.073-2.661,28.875-12.914,32.605-30.913
	c6.329-30.547-28.875-15.883-35.507-37.358c-1.94-6.281,1.299-13.092-0.586-19.375c-4.33-14.42-24.577-11.614-34.122-4.987
	c-4.413,3.064-8.621,6.49-12.051,10.625c-8.754,10.555-11.697,24.811-12.125,38.517c-0.361,11.601,1.758,24.822,10.402,33.317
	C601.07,796.624,622.849,796.557,639.535,794.101z"/>
</svg>
