<svg width="141" height="160" viewBox="0 0 141 160" fill="none" xmlns="http://www.w3.org/2000/svg">
<path d="M124.375 130.947L117.451 137.975C117.451 137.975 88.6292 167.225 34.9763 112.774C-21.4632 55.4954 7.35809 26.2438 7.35809 26.2438L14.2812 19.2177C17.1917 16.2639 21.912 16.2639 24.8224 19.2177L49.562 44.3252C52.4725 47.279 52.4725 52.0678 49.562 55.0214L39.7551 64.9743C39.7551 64.9743 44.847 77.7911 56.2535 89.3672C67.6599 100.945 79.2892 105.095 79.2892 105.095L89.0945 95.1435C92.005 92.1898 96.7254 92.1898 99.6358 95.1435L124.375 120.251C127.286 123.205 127.286 127.994 124.375 130.947Z" fill="#619FB1"/>
<path d="M49.5619 55.0212L40.0968 64.6269C39.1432 62.702 38.6833 61.5454 38.6833 61.5454L48.0735 52.0156C50.0605 49.9991 50.6307 47.0892 49.7834 44.5603C52.4702 47.5282 52.3962 52.1448 49.5619 55.0212Z" fill="#00003F"/>
<path d="M124.376 130.948L117.451 137.975C117.451 137.975 88.6294 167.225 34.9768 112.775C-1.02709 76.2355 -2.33431 51.101 1.43904 37.6902C-1.37104 50.998 1.57034 74.2908 34.1086 107.313C85.4804 159.45 113.077 131.443 113.077 131.443L119.707 124.713C121.698 122.693 122.266 119.776 121.412 117.243L124.376 120.251C127.286 123.204 127.286 127.994 124.376 130.948Z" fill="#00003F"/>
<path d="M9.68962 32.4588C9.18066 32.7395 8.62631 32.1632 8.91186 31.6517C9.24657 31.0522 9.67155 30.4288 10.1684 29.9877C11.1262 29.1372 15.8215 24.8999 18.1693 22.7803C18.9197 22.1028 20.0624 22.1464 20.7611 22.8785L31.0824 33.6931C31.5624 34.1961 30.9721 34.9921 30.3638 34.6617C25.395 31.9632 16.7577 28.5607 9.68962 32.4588Z" fill="#7C46C0"/>
<path d="M84.9604 108.148C84.4514 108.429 83.8971 107.853 84.1826 107.341C84.5173 106.742 84.9423 106.118 85.4391 105.677C86.397 104.826 91.0923 100.589 93.44 98.4696C94.1904 97.7921 95.3331 97.8357 96.0319 98.5678L106.353 109.382C106.833 109.885 106.243 110.681 105.635 110.351C100.666 107.653 92.0285 104.25 84.9604 108.148Z" fill="#7C46C0"/>
<path d="M46.2845 22.9688C45.8723 22.9688 45.4599 22.8093 45.1454 22.49C44.5163 21.8516 44.5163 20.8166 45.1454 20.1782L59.401 5.71052C60.0301 5.07208 61.05 5.07208 61.6791 5.71052C62.3082 6.34895 62.3082 7.38395 61.6791 8.02239L47.4236 22.49C47.109 22.8093 46.6967 22.9688 46.2845 22.9688Z" fill="#00003F"/>
<path d="M36.2185 16.8389C36.0848 16.8389 35.9489 16.8219 35.8135 16.7863C34.9522 16.5599 34.435 15.6678 34.658 14.7938L38.1213 1.22536C38.3444 0.351341 39.223 -0.174043 40.0847 0.0527671C40.9459 0.279134 41.4631 1.17123 41.2401 2.04524L37.7768 15.6137C37.5887 16.3502 36.935 16.8389 36.2185 16.8389Z" fill="#00003F"/>
<path d="M52.1629 34.3308C51.4464 34.3308 50.7927 33.8422 50.6046 33.1056C50.3815 32.2315 50.8988 31.3394 51.76 31.1131L65.1296 27.5983C65.9912 27.372 66.8699 27.8969 67.093 28.7709C67.316 29.6449 66.7988 30.537 65.9376 30.7634L52.5679 34.2781C52.4325 34.3138 52.2965 34.3308 52.1629 34.3308Z" fill="#00003F"/>
<path d="M120.14 97.9235C119.728 97.9235 119.316 97.7638 119.001 97.4447C118.372 96.8062 118.372 95.7712 119.001 95.1328L133.257 80.6652C133.886 80.0267 134.906 80.0267 135.535 80.6652C136.164 81.3036 136.164 82.3386 135.535 82.977L121.279 97.4447C120.965 97.7638 120.553 97.9235 120.14 97.9235Z" fill="#00003F"/>
<path d="M110.074 91.7935C109.94 91.7935 109.804 91.7765 109.668 91.7409C108.807 91.5145 108.29 90.6224 108.513 89.7484L111.976 76.1799C112.199 75.3059 113.078 74.7805 113.94 75.0073C114.801 75.2337 115.318 76.1258 115.095 76.9998L111.632 90.5683C111.444 91.3049 110.79 91.7935 110.074 91.7935Z" fill="#00003F"/>
<path d="M126.018 109.285C125.301 109.285 124.648 108.797 124.46 108.06C124.237 107.186 124.754 106.294 125.615 106.068L138.985 102.553C139.846 102.327 140.725 102.852 140.948 103.726C141.171 104.6 140.654 105.492 139.793 105.718L126.423 109.233C126.287 109.268 126.151 109.285 126.018 109.285Z" fill="#00003F"/>
<path d="M66.0158 159.476C94.0233 159.476 116.728 158.241 116.728 156.719C116.728 155.196 94.0233 153.962 66.0158 153.962C38.0083 153.962 15.3037 155.196 15.3037 156.719C15.3037 158.241 38.0083 159.476 66.0158 159.476Z" fill="#E0E0E0"/>
</svg>
