<svg width="500" height="500" viewBox="0 0 500 500" fill="none" xmlns="http://www.w3.org/2000/svg">
<path d="M450.12 289.841C450.12 289.841 441.116 286.881 436.801 307.664C432.486 328.447 431.836 339.929 431.836 339.929C431.836 339.929 430.422 344.422 427.114 342.641C423.806 340.86 418.274 334.754 414.16 337.249C409.893 339.836 409.78 345.418 412.735 352.768C415.691 360.118 421.575 376.457 422.102 377.937C422.619 379.389 422.366 381.806 419.918 380.954C417.47 380.102 402.005 370.134 397.714 377.755C393.424 385.376 405.022 404.498 406.249 406.613C407.477 408.728 407.297 409.823 406.368 410.683C405.439 411.543 400.557 407.703 396.042 405.048C391.527 402.393 385.827 400.106 383.72 404.711C381.613 409.316 384.862 425.152 406.577 446.387L417.283 455.567L430.721 451.083C458.893 439.736 467.936 426.335 467.745 421.275C467.553 416.215 461.412 416.155 456.226 416.887C451.04 417.619 445.062 419.307 444.531 418.158C444 417.009 444.252 415.927 446.193 414.441C448.135 412.955 466.149 399.702 465.089 391.02C464.029 382.338 445.932 385.654 443.344 385.509C440.756 385.363 441.444 383.033 442.476 381.887C443.527 380.72 455.198 367.86 460.734 362.193C466.269 356.526 468.293 351.323 465.335 347.304C462.483 343.429 455.041 346.963 451.304 347.348C447.567 347.733 447.974 343.04 447.974 343.04C447.974 343.04 451.753 332.177 455.69 311.32C459.627 290.463 449.933 289.795 449.933 289.795" fill="#EBEBEB"/>
<path d="M417.209 452.602C420.156 437.295 424.409 416.182 429.185 392.876C433.959 369.577 438.264 348.48 441.297 333.191C442.803 325.561 444.024 319.379 444.872 315.081C445.293 312.96 445.622 311.306 445.85 310.158C445.964 309.612 446.052 309.188 446.116 308.88C446.179 308.592 446.223 308.448 446.223 308.448C446.223 308.448 446.211 308.599 446.164 308.889C446.111 309.199 446.038 309.627 445.945 310.176C445.738 311.328 445.439 312.988 445.056 315.116C444.279 319.405 443.108 325.603 441.631 333.257C438.683 348.564 434.431 369.675 429.657 392.973C424.882 416.28 420.576 437.379 417.543 452.668" fill="#E0E0E0"/>
<path d="M421.555 346.102C421.584 346.085 421.797 346.379 422.158 346.926C422.522 347.472 423.023 348.277 423.632 349.279C424.846 351.284 426.449 354.097 428.16 357.235C429.828 360.328 431.337 363.123 432.503 365.286C433.023 366.24 433.466 367.052 433.829 367.719C434.144 368.292 434.305 368.619 434.277 368.636C434.249 368.654 434.034 368.361 433.668 367.816C433.306 367.269 432.804 366.463 432.206 365.455C431.012 363.437 429.446 360.604 427.736 357.467C426.046 354.388 424.519 351.604 423.337 349.451C422.812 348.499 422.365 347.689 421.997 347.024C421.685 346.447 421.526 346.119 421.555 346.102Z" fill="#E0E0E0"/>
<path d="M435.591 368.536C435.522 368.422 441.173 364.857 448.213 360.575C455.255 356.291 461.018 352.912 461.087 353.026C461.156 353.14 455.506 356.704 448.464 360.988C441.425 365.27 435.661 368.65 435.591 368.536Z" fill="#E0E0E0"/>
<path d="M426.645 403.99C426.638 403.958 426.99 403.842 427.634 403.661C428.379 403.458 429.291 403.21 430.365 402.918C432.67 402.289 435.849 401.411 439.323 400.315C442.801 399.227 445.914 398.136 448.163 397.329C449.211 396.955 450.101 396.638 450.829 396.378C451.46 396.158 451.816 396.051 451.828 396.081C451.841 396.112 451.509 396.278 450.898 396.552C450.287 396.826 449.396 397.205 448.284 397.647C446.062 398.537 442.957 399.683 439.468 400.774C435.983 401.873 432.779 402.702 430.449 403.247C429.283 403.515 428.336 403.72 427.678 403.842C427.02 403.969 426.653 404.023 426.645 403.99Z" fill="#E0E0E0"/>
<path d="M409.483 386.493C409.506 386.469 409.771 386.688 410.23 387.102C410.688 387.517 411.341 388.129 412.14 388.892C413.738 390.418 415.921 392.55 418.312 394.925C420.703 397.302 422.849 399.472 424.385 401.06C425.153 401.854 425.769 402.503 426.186 402.958C426.604 403.414 426.824 403.677 426.8 403.701C426.777 403.725 426.512 403.506 426.053 403.092C425.594 402.677 424.942 402.066 424.143 401.303C422.545 399.777 420.362 397.645 417.97 395.268C415.579 392.892 413.434 390.722 411.898 389.134C411.13 388.34 410.514 387.691 410.096 387.236C409.679 386.78 409.459 386.517 409.483 386.493Z" fill="#E0E0E0"/>
<path d="M397.609 416.789C397.632 416.765 397.968 417.048 398.555 417.58C399.205 418.185 400.027 418.951 401.009 419.866C403.067 421.811 405.886 424.522 408.979 427.538C412.073 430.555 414.855 433.304 416.852 435.312C417.791 436.27 418.578 437.074 419.199 437.708C419.746 438.281 420.037 438.61 420.013 438.634C419.99 438.658 419.654 438.375 419.067 437.843C418.417 437.238 417.595 436.472 416.613 435.558C414.555 433.613 411.736 430.902 408.642 427.885C405.549 424.869 402.767 422.12 400.771 420.112C399.832 419.154 399.045 418.351 398.424 417.716C397.877 417.142 397.585 416.813 397.609 416.789Z" fill="#E0E0E0"/>
<path d="M419.625 437.96C419.616 437.928 420.059 437.771 420.868 437.514C421.766 437.235 422.917 436.877 424.297 436.449C427.192 435.549 431.185 434.293 435.556 432.784C439.93 431.282 443.854 429.82 446.688 428.744C448.04 428.233 449.168 427.807 450.047 427.474C450.842 427.178 451.288 427.029 451.301 427.06C451.314 427.091 450.892 427.298 450.119 427.648C449.345 427.998 448.218 428.484 446.814 429.061C444.009 430.22 440.096 431.735 435.714 433.24C431.335 434.751 427.317 435.958 424.395 436.776C422.932 437.181 421.745 437.496 420.92 437.694C420.094 437.896 419.634 437.992 419.625 437.96Z" fill="#E0E0E0"/>
<path d="M284.22 126.791H189.382V225.652H284.22V126.791Z" fill="#E0E0E0"/>
<path d="M277.797 126.791H182.959V225.652H277.797V126.791Z" fill="#EBEBEB"/>
<path d="M265.049 140.081H195.708V212.363H265.049V140.081Z" fill="#FAFAFA"/>
<path d="M195.708 212.843C195.754 212.898 195.088 213.645 193.975 214.807C192.862 215.97 191.302 217.547 189.557 219.266C187.812 220.985 186.212 222.52 185.036 223.613C183.859 224.706 183.106 225.357 183.055 225.306C183.004 225.255 183.667 224.511 184.78 223.349C185.893 222.186 187.457 220.605 189.206 218.882C190.955 217.16 192.558 215.622 193.734 214.529C194.911 213.436 195.662 212.788 195.708 212.843Z" fill="#E0E0E0"/>
<path d="M265.049 212.666C265.104 212.62 265.851 213.286 267.014 214.399C268.177 215.512 269.754 217.072 271.473 218.817C273.192 220.562 274.727 222.162 275.82 223.339C276.913 224.516 277.564 225.269 277.513 225.32C277.462 225.371 276.718 224.708 275.556 223.595C274.394 222.482 272.813 220.918 271.089 219.169C269.366 217.42 267.829 215.817 266.736 214.641C265.642 213.462 264.994 212.712 265.049 212.666Z" fill="#E0E0E0"/>
<path d="M264.859 140.274C264.813 140.219 265.479 139.472 266.592 138.309C267.705 137.147 269.265 135.569 271.01 133.85C272.755 132.131 274.355 130.596 275.532 129.503C276.709 128.41 277.462 127.759 277.513 127.81C277.564 127.861 276.901 128.605 275.788 129.767C274.675 130.929 273.111 132.51 271.362 134.234C269.613 135.957 268.01 137.494 266.834 138.587C265.656 139.681 264.905 140.329 264.859 140.274Z" fill="#E0E0E0"/>
<path d="M195.518 140.451C195.463 140.497 194.716 139.831 193.553 138.718C192.39 137.605 190.813 136.045 189.094 134.3C187.375 132.555 185.84 130.955 184.747 129.779C183.654 128.602 183.003 127.849 183.054 127.798C183.105 127.747 183.849 128.41 185.011 129.523C186.173 130.636 187.754 132.2 189.478 133.949C191.201 135.698 192.738 137.301 193.831 138.478C194.925 139.655 195.573 140.405 195.518 140.451Z" fill="#E0E0E0"/>
<path d="M264.859 212.363C264.859 212.363 264.85 212.241 264.846 212.014C264.843 211.773 264.839 211.44 264.833 211.007C264.827 210.108 264.818 208.804 264.807 207.109C264.793 203.692 264.773 198.712 264.747 192.382C264.719 179.725 264.679 161.684 264.632 140.081L264.859 140.308C244.675 140.318 220.968 140.329 195.715 140.342H195.708L195.968 140.082C195.955 166.613 195.942 191.433 195.931 212.363L195.708 212.14C216.439 212.187 233.697 212.227 245.79 212.254C251.837 212.279 256.589 212.299 259.85 212.312C261.466 212.323 262.709 212.332 263.567 212.338C263.979 212.343 264.296 212.348 264.526 212.351C264.743 212.354 264.859 212.363 264.859 212.363C264.859 212.363 264.759 212.371 264.551 212.375C264.326 212.378 264.018 212.382 263.616 212.388C262.768 212.394 261.54 212.403 259.942 212.414C256.693 212.428 251.958 212.447 245.933 212.472C233.806 212.5 216.498 212.539 195.708 212.586L195.485 212.587V212.363C195.474 191.433 195.462 166.612 195.448 140.082V139.822H195.709H195.716C220.969 139.834 244.676 139.846 264.86 139.855H265.087L265.086 140.082C265.038 161.745 264.999 179.836 264.971 192.528C264.945 198.836 264.925 203.798 264.912 207.204C264.9 208.88 264.892 210.169 264.886 211.058C264.88 211.48 264.876 211.805 264.873 212.04C264.868 212.258 264.859 212.363 264.859 212.363Z" fill="#E0E0E0"/>
<path d="M214.008 170.278C214.008 170.278 212.523 188.174 231.904 188.174C231.905 178.624 224.026 171.085 214.008 170.278Z" fill="#EBEBEB"/>
<path d="M249.473 170.291C249.473 170.291 231.577 168.806 231.577 188.187C241.127 188.188 248.666 180.308 249.473 170.291Z" fill="#EBEBEB"/>
<path d="M231.045 160.496C231.045 160.496 216.425 173.62 231.845 188.174C239.017 180.576 238.41 168.661 231.045 160.496Z" fill="#E0E0E0"/>
<path d="M135.161 60.6451H54.741V144.476H135.161V60.6451Z" fill="#E0E0E0"/>
<path d="M129.715 60.645H49.2949V144.476H129.715V60.645Z" fill="#FAFAFA"/>
<path d="M129.74 144.501H49.27V60.6201H129.74V144.501ZM49.32 144.451H129.69V60.6701H49.32V144.451Z" fill="#E0E0E0"/>
<path d="M118.905 71.9141H60.106V133.207H118.905V71.9141Z" fill="#FAFAFA"/>
<path d="M60.106 133.614C60.152 133.669 59.594 134.31 58.655 135.301C57.716 136.292 56.396 137.633 54.917 139.09C53.437 140.548 52.078 141.845 51.076 142.767C50.073 143.689 49.427 144.233 49.377 144.182C49.326 144.131 49.881 143.493 50.82 142.502C51.759 141.511 53.082 140.167 54.566 138.705C56.049 137.244 57.412 135.943 58.414 135.022C59.417 134.101 60.06 133.559 60.106 133.614Z" fill="#E0E0E0"/>
<path d="M118.905 133.464C118.96 133.418 119.601 133.976 120.592 134.915C121.583 135.854 122.924 137.174 124.381 138.653C125.838 140.132 127.136 141.492 128.058 142.494C128.979 143.497 129.524 144.143 129.473 144.193C129.422 144.244 128.784 143.689 127.793 142.75C126.802 141.811 125.458 140.488 123.996 139.004C122.535 137.521 121.234 136.158 120.313 135.156C119.392 134.153 118.85 133.51 118.905 133.464Z" fill="#E0E0E0"/>
<path d="M118.744 72.0781C118.698 72.0231 119.256 71.3821 120.195 70.3911C121.134 69.4001 122.454 68.0591 123.933 66.6021C125.413 65.1441 126.772 63.8471 127.774 62.9251C128.777 62.0041 129.423 61.4591 129.473 61.5101C129.524 61.5611 128.969 62.1991 128.03 63.1901C127.091 64.1811 125.768 65.5251 124.284 66.9871C122.801 68.4481 121.438 69.7491 120.436 70.6701C119.433 71.5911 118.79 72.1331 118.744 72.0781Z" fill="#E0E0E0"/>
<path d="M59.945 72.2281C59.89 72.2741 59.249 71.7161 58.258 70.7771C57.267 69.8381 55.926 68.5181 54.469 67.0391C53.011 65.5591 51.714 64.2001 50.792 63.1981C49.871 62.1951 49.326 61.5491 49.377 61.4991C49.428 61.4481 50.066 62.0031 51.057 62.9421C52.048 63.8811 53.392 65.2041 54.854 66.6881C56.315 68.1711 57.616 69.5341 58.537 70.5361C59.458 71.5391 60 72.1821 59.945 72.2281Z" fill="#E0E0E0"/>
<path d="M118.744 133.207C118.74 133.203 118.735 133.102 118.731 132.909C118.728 132.7 118.724 132.418 118.718 132.054C118.712 131.285 118.703 130.18 118.692 128.745C118.678 125.841 118.658 121.617 118.632 116.253C118.604 105.518 118.564 90.2252 118.517 71.9142L118.744 72.1412C101.627 72.1512 81.525 72.1622 60.112 72.1752H60.106L60.366 71.9152C60.352 94.4122 60.34 115.458 60.329 133.207L60.106 132.984C77.677 133.031 92.307 133.071 102.564 133.098C107.688 133.123 111.72 133.143 114.49 133.156C115.858 133.167 116.912 133.176 117.645 133.182C117.992 133.187 118.26 133.191 118.46 133.194C118.644 133.199 118.74 133.203 118.744 133.207C118.748 133.211 118.661 133.215 118.485 133.219C118.291 133.222 118.031 133.226 117.694 133.231C116.97 133.237 115.932 133.246 114.582 133.257C111.824 133.27 107.809 133.29 102.706 133.315C92.415 133.343 77.736 133.382 60.106 133.429L59.883 133.43V133.206C59.872 115.457 59.86 94.4102 59.846 71.9142V71.6542H60.107H60.113C81.526 71.6662 101.628 71.6782 118.745 71.6882H118.973L118.972 71.9152C118.924 90.2862 118.885 105.629 118.857 116.399C118.831 121.741 118.811 125.948 118.797 128.84C118.786 130.256 118.777 131.347 118.77 132.105C118.765 132.459 118.76 132.733 118.757 132.936C118.752 133.12 118.748 133.211 118.744 133.207Z" fill="#E0E0E0"/>
<path d="M99.315 92.7511H79.695V112.371H99.315V92.7511Z" fill="#EBEBEB"/>
<path d="M415.373 211.87H371.401V257.707H415.373V211.87Z" fill="#E0E0E0"/>
<path d="M412.395 211.87H368.423V257.707H412.395V211.87Z" fill="#FAFAFA"/>
<path d="M412.409 257.72H368.41V211.855H412.409V257.72ZM368.437 257.693H412.382V211.883H368.437V257.693Z" fill="#E0E0E0"/>
<path d="M406.485 218.031H374.335V251.545H406.485V218.031Z" fill="#FAFAFA"/>
<path d="M374.335 251.768C374.36 251.798 374.055 252.149 373.542 252.691C373.029 253.233 372.307 253.966 371.498 254.763C370.689 255.56 369.946 256.27 369.398 256.773C368.85 257.277 368.497 257.575 368.469 257.547C368.441 257.519 368.745 257.17 369.258 256.629C369.771 256.087 370.495 255.352 371.306 254.553C372.117 253.754 372.862 253.043 373.41 252.539C373.958 252.034 374.309 251.738 374.335 251.768Z" fill="#E0E0E0"/>
<path d="M406.485 251.686C406.515 251.661 406.866 251.966 407.407 252.479C407.949 252.992 408.682 253.714 409.479 254.523C410.276 255.332 410.986 256.075 411.49 256.623C411.994 257.171 412.292 257.524 412.264 257.552C412.236 257.58 411.887 257.276 411.345 256.763C410.803 256.25 410.068 255.526 409.269 254.715C408.47 253.904 407.759 253.159 407.255 252.611C406.751 252.062 406.454 251.711 406.485 251.686Z" fill="#E0E0E0"/>
<path d="M406.397 218.121C406.372 218.091 406.677 217.741 407.19 217.199C407.703 216.657 408.425 215.924 409.234 215.127C410.043 214.33 410.786 213.62 411.334 213.116C411.882 212.612 412.235 212.314 412.263 212.342C412.291 212.37 411.987 212.719 411.474 213.261C410.961 213.803 410.237 214.538 409.426 215.337C408.615 216.136 407.87 216.847 407.322 217.351C406.773 217.855 406.422 218.151 406.397 218.121Z" fill="#E0E0E0"/>
<path d="M374.247 218.203C374.217 218.228 373.867 217.923 373.325 217.41C372.783 216.897 372.05 216.175 371.253 215.366C370.456 214.557 369.746 213.814 369.243 213.266C368.739 212.718 368.441 212.365 368.469 212.337C368.497 212.309 368.846 212.613 369.388 213.126C369.93 213.639 370.665 214.363 371.464 215.174C372.263 215.985 372.974 216.73 373.478 217.278C373.98 217.826 374.277 218.178 374.247 218.203Z" fill="#E0E0E0"/>
<path d="M406.397 251.545C406.395 251.543 406.392 251.488 406.39 251.382C406.388 251.268 406.386 251.114 406.383 250.914C406.38 250.494 406.375 249.889 406.369 249.105C406.361 247.517 406.35 245.208 406.336 242.275C406.321 236.405 406.299 228.043 406.273 218.031L406.397 218.155C397.038 218.16 386.047 218.167 374.338 218.173H374.335L374.477 218.031C374.469 230.332 374.463 241.84 374.457 251.545L374.335 251.423C383.942 251.449 391.942 251.47 397.55 251.486C400.352 251.5 402.556 251.511 404.071 251.518C404.819 251.524 405.395 251.529 405.796 251.532C405.986 251.535 406.132 251.537 406.242 251.539C406.342 251.54 406.394 251.543 406.397 251.545C406.399 251.547 406.352 251.55 406.255 251.552C406.149 251.554 406.007 251.556 405.822 251.559C405.426 251.562 404.858 251.567 404.12 251.573C402.612 251.58 400.417 251.591 397.627 251.605C392 251.62 383.974 251.642 374.334 251.668H374.212V251.545C374.206 241.84 374.199 230.332 374.192 218.031V217.889H374.335H374.338C386.046 217.896 397.038 217.902 406.397 217.907H406.521V218.031C406.495 228.076 406.473 236.465 406.458 242.354C406.444 245.275 406.433 247.575 406.425 249.156C406.419 249.93 406.414 250.526 406.41 250.941C406.407 251.135 406.405 251.284 406.403 251.395C406.401 251.497 406.399 251.547 406.397 251.545Z" fill="#E0E0E0"/>
<path d="M395.774 229.424H385.046V240.152H395.774V229.424Z" fill="#EBEBEB"/>
<path d="M234.699 47.4281H190.727V93.2651H234.699V47.4281Z" fill="#E0E0E0"/>
<path d="M231.721 47.428H187.749V93.265H231.721V47.428Z" fill="#FAFAFA"/>
<path d="M231.735 93.2781H187.736V47.4141H231.735V93.2781ZM187.763 93.2511H231.708V47.4411H187.763V93.2511Z" fill="#E0E0E0"/>
<path d="M225.81 53.5891H193.66V87.1031H225.81V53.5891Z" fill="#FAFAFA"/>
<path d="M193.66 87.3261C193.685 87.3561 193.38 87.7071 192.867 88.2481C192.353 88.7901 191.632 89.5231 190.823 90.3201C190.014 91.1171 189.271 91.8271 188.722 92.3301C188.174 92.8341 187.821 93.1321 187.793 93.1041C187.765 93.0761 188.069 92.7271 188.582 92.1851C189.095 91.6431 189.819 90.9081 190.63 90.1091C191.441 89.3101 192.186 88.5991 192.734 88.0951C193.283 87.5921 193.635 87.2961 193.66 87.3261Z" fill="#E0E0E0"/>
<path d="M225.81 87.243C225.84 87.218 226.191 87.523 226.732 88.036C227.274 88.55 228.007 89.271 228.804 90.08C229.601 90.889 230.311 91.632 230.814 92.18C231.317 92.728 231.616 93.081 231.588 93.109C231.56 93.137 231.211 92.833 230.669 92.32C230.127 91.807 229.392 91.083 228.593 90.272C227.794 89.461 227.083 88.716 226.579 88.168C226.076 87.62 225.78 87.269 225.81 87.243Z" fill="#E0E0E0"/>
<path d="M225.722 53.679C225.697 53.649 226.002 53.298 226.515 52.757C227.028 52.215 227.75 51.482 228.559 50.685C229.368 49.888 230.111 49.178 230.659 48.674C231.207 48.17 231.56 47.872 231.588 47.9C231.616 47.928 231.312 48.277 230.799 48.818C230.286 49.36 229.562 50.095 228.751 50.894C227.94 51.693 227.195 52.404 226.647 52.908C226.099 53.412 225.748 53.709 225.722 53.679Z" fill="#E0E0E0"/>
<path d="M193.572 53.7611C193.542 53.7861 193.191 53.4811 192.65 52.9681C192.108 52.4541 191.375 51.7331 190.578 50.9241C189.781 50.1151 189.071 49.3721 188.567 48.8241C188.063 48.2761 187.765 47.9231 187.793 47.8951C187.821 47.8671 188.17 48.1711 188.711 48.6841C189.253 49.1981 189.988 49.9211 190.787 50.7321C191.586 51.5431 192.297 52.2881 192.801 52.8361C193.306 53.3841 193.602 53.7361 193.572 53.7611Z" fill="#E0E0E0"/>
<path d="M225.722 87.1031C225.72 87.1011 225.717 87.0461 225.715 86.9401C225.713 86.8261 225.711 86.6721 225.708 86.4721C225.705 86.0521 225.7 85.4481 225.694 84.6631C225.686 83.0751 225.675 80.7661 225.661 77.8331C225.646 71.9631 225.624 63.6021 225.598 53.5901L225.722 53.7141C216.363 53.7191 205.371 53.7261 193.663 53.7321H193.66L193.802 53.5901C193.794 65.8911 193.788 77.3981 193.782 87.1031L193.66 86.9811C203.268 87.0071 211.267 87.0281 216.875 87.0441C219.677 87.0581 221.881 87.0691 223.396 87.0761C224.144 87.0821 224.72 87.0871 225.121 87.0901C225.311 87.0931 225.457 87.0951 225.567 87.0971C225.668 87.0981 225.72 87.1011 225.722 87.1031C225.724 87.1051 225.676 87.1081 225.58 87.1101C225.474 87.1121 225.332 87.1141 225.147 87.1171C224.751 87.1201 224.183 87.1251 223.445 87.1311C221.937 87.1381 219.742 87.1491 216.952 87.1631C211.325 87.1781 203.299 87.2001 193.659 87.2261H193.537V87.1031C193.531 77.3981 193.524 65.8901 193.517 53.5901V53.4481H193.659H193.662C205.37 53.4551 216.362 53.4611 225.721 53.4661H225.845V53.5901C225.819 63.6351 225.797 72.0241 225.782 77.9131C225.768 80.8341 225.757 83.1341 225.749 84.7151C225.743 85.4891 225.738 86.0861 225.735 86.5001C225.732 86.6941 225.73 86.8431 225.728 86.9541C225.727 87.0551 225.725 87.1051 225.722 87.1031Z" fill="#E0E0E0"/>
<path d="M215.099 64.9821H204.371V75.7101H215.099V64.9821Z" fill="#EBEBEB"/>
<path d="M470.269 456.736C470.269 456.88 371.643 456.996 250.01 456.996C128.335 456.996 29.73 456.879 29.73 456.736C29.73 456.592 128.335 456.476 250.01 456.476C371.643 456.475 470.269 456.592 470.269 456.736Z" fill="#272527"/>
<path d="M194.456 456.456C229.692 456.456 258.257 427.891 258.257 392.655C258.257 357.419 229.692 328.854 194.456 328.854C159.22 328.854 130.655 357.419 130.655 392.655C130.655 427.891 159.22 456.456 194.456 456.456Z" fill="#D650C7"/>
<g opacity="0.3">
<path d="M140.931 427.337C147.398 427.653 152.547 423.715 155.479 417.943C158.411 412.171 159.023 405.538 159.583 399.088C160.343 390.346 161.104 381.604 161.864 372.862C162.254 368.375 162.665 363.804 164.408 359.651C166.151 355.498 169.477 351.756 173.85 350.68C178.384 349.565 183.655 351.324 187.552 348.751C191.263 346.3 192.046 340.912 195.651 338.308C199.483 335.541 204.846 336.977 209.131 338.969C217.346 342.787 224.77 348.297 230.805 355.053C236.867 361.84 242.081 370.263 250.675 373.255C253.203 374.135 256.284 374.378 258.307 372.626C261.31 370.026 260.036 365.149 258.247 361.603C248.335 341.96 229.419 327.092 207.99 322.102C198.221 319.827 187.828 319.551 178.261 322.562C168.694 325.573 160.036 332.09 155.563 341.067C150.482 351.263 152.921 363.404 150.862 374.608C147.547 392.655 143.748 410.044 140.931 427.337Z" fill="black"/>
</g>
<path d="M234.129 413.062C234.112 413.057 234.145 412.868 234.225 412.514C234.324 412.106 234.447 411.597 234.597 410.976C234.683 410.637 234.776 410.268 234.877 409.869C234.968 409.462 235.04 409.013 235.134 408.535C235.303 407.576 235.559 406.495 235.677 405.273C235.753 404.663 235.833 404.027 235.917 403.365C235.996 402.701 236.011 402.004 236.064 401.286C236.195 399.85 236.159 398.31 236.163 396.692C236.057 393.458 235.696 389.908 234.926 386.251C234.113 382.601 232.972 379.22 231.73 376.231C231.056 374.759 230.451 373.343 229.738 372.09C229.392 371.459 229.091 370.83 228.744 370.259C228.394 369.691 228.058 369.144 227.736 368.621C227.123 367.558 226.442 366.68 225.891 365.877C225.608 365.481 225.357 365.102 225.105 364.769C224.848 364.448 224.61 364.151 224.392 363.878C223.998 363.375 223.676 362.963 223.417 362.632C223.198 362.343 223.09 362.185 223.103 362.173C223.116 362.161 223.251 362.295 223.496 362.563C223.775 362.878 224.123 363.27 224.549 363.75C224.78 364.016 225.03 364.305 225.301 364.617C225.566 364.942 225.829 365.314 226.125 365.705C226.702 366.496 227.408 367.365 228.045 368.423C228.378 368.945 228.727 369.489 229.089 370.055C229.447 370.625 229.761 371.254 230.117 371.886C230.852 373.141 231.478 374.562 232.169 376.042C233.447 379.047 234.613 382.457 235.433 386.141C236.211 389.833 236.561 393.42 236.641 396.683C236.624 398.316 236.643 399.869 236.493 401.315C236.43 402.038 236.405 402.74 236.315 403.408C236.22 404.073 236.128 404.713 236.04 405.326C235.897 406.553 235.615 407.636 235.417 408.596C235.309 409.074 235.223 409.522 235.117 409.927C235 410.323 234.891 410.69 234.791 411.028C234.602 411.641 234.448 412.142 234.324 412.544C234.213 412.889 234.146 413.068 234.129 413.062Z" fill="#FAFAFA"/>
<path d="M231.553 421.459C231.68 421.504 230.905 423.864 229.369 426.501C227.843 429.144 226.179 430.989 226.077 430.901C225.957 430.806 227.416 428.842 228.918 426.239C230.43 423.644 231.41 421.402 231.553 421.459Z" fill="#FAFAFA"/>
<path d="M178.356 332.277C178.824 333.588 179.051 334.976 179.525 336.285C179.998 337.594 180.778 338.873 182.009 339.522C183.241 340.171 184.984 339.971 185.748 338.807C186.12 338.24 186.219 337.541 186.291 336.866C186.455 335.333 186.528 333.791 186.51 332.25C186.499 331.265 186.425 330.209 185.816 329.435C185.165 328.607 184.016 328.296 182.969 328.412C181.922 328.528 180.953 329.007 180.034 329.522C179.115 330.037 178.209 330.6 177.202 330.909" fill="#D650C7"/>
<g opacity="0.5">
<path d="M178.356 332.277C178.824 333.588 179.051 334.976 179.525 336.285C179.998 337.594 180.778 338.873 182.009 339.522C183.241 340.171 184.984 339.971 185.748 338.807C186.12 338.24 186.219 337.541 186.291 336.866C186.455 335.333 186.528 333.791 186.51 332.25C186.499 331.265 186.425 330.209 185.816 329.435C185.165 328.607 184.016 328.296 182.969 328.412C181.922 328.528 180.953 329.007 180.034 329.522C179.115 330.037 178.209 330.6 177.202 330.909" fill="black"/>
</g>
<path d="M114.443 366.021C114.443 366.021 114.625 366.077 114.858 366.338C115.089 366.592 115.34 367.09 115.31 367.763C115.308 368.423 114.877 369.292 113.975 369.685C113.111 370.088 111.869 370.053 110.88 369.338C108.885 367.962 108.047 364.544 109.651 361.778C110.452 360.383 111.859 359.456 113.14 358.472C114.454 357.512 115.539 356.219 116.137 354.614C116.744 353.025 116.912 351.32 116.732 349.722C116.553 348.119 116.058 346.614 115.422 345.265C114.785 343.914 114.016 342.706 113.228 341.629C112.438 340.553 111.631 339.575 111.047 338.565C110.456 337.568 110.088 336.533 110.047 335.594C109.991 334.659 110.195 333.854 110.484 333.265C110.781 332.675 111.156 332.308 111.435 332.11C111.713 331.908 111.892 331.863 111.892 331.863C111.945 331.914 111.194 332.194 110.668 333.35C110.422 333.92 110.258 334.689 110.338 335.572C110.403 336.455 110.77 337.418 111.363 338.374C111.947 339.339 112.757 340.289 113.574 341.37C114.39 342.452 115.188 343.675 115.854 345.057C116.519 346.437 117.043 347.989 117.238 349.663C117.432 351.334 117.263 353.119 116.622 354.799C116.002 356.487 114.8 357.903 113.45 358.873C112.133 359.87 110.8 360.752 110.063 362.018C108.554 364.551 109.303 367.761 111.092 369.034C111.967 369.695 113.069 369.749 113.857 369.415C114.669 369.086 115.07 368.354 115.107 367.745C115.163 367.131 114.966 366.657 114.774 366.399C114.583 366.138 114.427 366.042 114.443 366.021Z" fill="#272527"/>
<path d="M157.14 341.704L193.486 328.552L213.115 336.832L233.59 301.107L227.336 279.164L167.731 280.42L149.894 281L122.619 294.12L132.801 329.416L129.699 343.994L157.14 341.704Z" fill="#B78876"/>
<path d="M132.537 328.389C168.903 320.334 162.657 339.708 162.981 339.591C163.304 339.474 171.451 339.137 178.105 341.371C188.39 344.824 186.349 331.026 186.349 331.026C186.349 331.026 186.435 341.664 181.047 338.297C175.659 334.93 178.105 280.321 178.105 280.321L167.732 280.311C158.464 273.283 149.895 281 149.895 281L123.091 295.753L124.015 298.848C124.015 298.848 137.437 292.439 142.283 305.451C147.281 318.872 131.669 325.49 131.669 325.49L132.537 328.389Z" fill="#D650C7"/>
<path d="M204.613 297.406C204.604 297.55 204.113 297.636 203.517 297.599C202.92 297.562 202.444 297.416 202.453 297.272C202.462 297.129 202.953 297.042 203.549 297.079C204.146 297.116 204.622 297.262 204.613 297.406Z" fill="#AA6550"/>
<path d="M167.926 319.758C167.856 319.689 168.715 318.965 169.629 317.462C170.534 315.99 171.427 313.591 171.034 310.946C170.721 308.713 169.601 306.865 168.523 305.641C167.439 304.398 166.407 303.721 165.993 303.405L165.998 303.408C165.802 303.292 165.717 303.228 165.727 303.208C165.737 303.188 165.84 303.213 166.053 303.292L166.058 303.295C166.532 303.516 167.647 304.124 168.826 305.365C169.995 306.585 171.217 308.505 171.55 310.871C171.965 313.679 170.957 316.19 169.94 317.659C169.429 318.409 168.928 318.949 168.554 319.287C168.179 319.626 167.947 319.782 167.926 319.758Z" fill="#272527"/>
<path d="M193.35 321.487C193.494 321.484 193.65 323.151 193.698 325.211C193.746 327.271 193.669 328.944 193.525 328.947C193.381 328.95 193.226 327.283 193.177 325.223C193.129 323.163 193.206 321.491 193.35 321.487Z" fill="#AA6550"/>
<path d="M150.067 280.772C150.21 280.757 151.421 291.077 152.771 303.82C154.122 316.567 155.1 326.91 154.957 326.925C154.814 326.94 153.604 316.622 152.253 303.874C150.903 291.132 149.924 280.787 150.067 280.772Z" fill="#FAFAFA"/>
<path d="M151.559 326.983C151.416 327.001 150.078 317.144 148.571 304.97C147.063 292.792 145.957 282.908 146.099 282.891C146.242 282.873 147.579 292.728 149.087 304.906C150.595 317.08 151.701 326.965 151.559 326.983Z" fill="#FAFAFA"/>
<path d="M129.699 343.885L118.116 449.202C118.116 449.202 103.069 454.229 100.778 456.736H133.94C135.279 455.727 160.087 340.2 160.087 340.2L129.699 343.885Z" fill="#B78876"/>
<path d="M153.169 349.275C153.144 349.296 152.935 349.103 152.606 348.71C152.276 348.318 151.84 347.712 151.393 346.908C150.495 345.314 149.627 342.82 149.686 339.98C149.746 337.139 150.719 334.683 151.684 333.13C152.165 332.345 152.625 331.758 152.972 331.381C153.318 331.002 153.534 330.818 153.559 330.841C153.63 330.9 152.862 331.735 152.004 333.314C151.144 334.877 150.265 337.26 150.207 339.992C150.15 342.723 150.926 345.142 151.72 346.739C152.511 348.352 153.243 349.219 153.169 349.275Z" fill="#AA6550"/>
<path d="M149.894 281L147.068 268.524L152.784 178.173C152.609 172.294 151.937 168.282 152.032 164.426C152.149 159.673 151.863 157.705 150.972 157.74C149.783 157.788 150.238 157.715 148.797 166.325C148.797 166.325 150.746 154.018 148.228 156.352C147.113 157.385 145.393 167.596 145.393 167.596C147.528 159.521 147.056 156.141 145.818 155.883C144.024 155.509 142.029 167.919 142.029 167.919C142.029 167.919 143.738 158.484 143.522 156.74C143.306 154.996 141.847 156.541 141.003 158.161C140.055 159.98 136.067 171.332 134.744 174.548C133.834 176.76 131.916 175.858 131.916 175.858C127.683 173.108 122.919 173.228 121.643 173.866C120.369 174.507 120.819 176.471 122.378 176.711C123.638 176.906 125.638 177.864 127.109 178.644C128.321 179.287 129.421 180.119 130.344 181.122C131.419 182.289 132.283 183.319 132.994 184.213L122.046 266.928C122.046 266.928 118.069 283.915 122.816 294.798" fill="#B78876"/>
<path d="M147.925 171.166C148.14 171.207 148.692 168.584 149.157 165.307C149.622 162.029 149.821 159.357 149.603 159.336C149.385 159.316 148.833 161.938 148.371 165.195C147.909 168.452 147.709 171.125 147.925 171.166Z" fill="#AA6550"/>
<path d="M144.56 170.961C144.774 171.005 145.52 168.243 146.224 164.793C146.928 161.342 147.325 158.509 147.11 158.466C146.895 158.422 146.15 161.183 145.446 164.635C144.741 168.084 144.345 170.917 144.56 170.961Z" fill="#AA6550"/>
<path d="M141.067 170.729C141.281 170.776 142.03 168.174 142.74 164.918C143.449 161.661 143.851 158.984 143.637 158.938C143.423 158.891 142.674 161.493 141.964 164.749C141.255 168.005 140.853 170.682 141.067 170.729Z" fill="#AA6550"/>
<path d="M142.402 269.5C142.569 269.457 142.957 272.681 145.048 275.964C147.095 279.277 149.828 281.029 149.716 281.161C149.685 281.211 148.964 280.849 147.951 280.036C146.938 279.228 145.667 277.925 144.607 276.24C143.552 274.552 142.933 272.841 142.646 271.578C142.356 270.312 142.343 269.506 142.402 269.5Z" fill="#AA6550"/>
<path d="M114.39 312.423C114.505 318.296 116.841 324.066 114.126 329.285C112.96 331.525 111.307 333.678 111.194 336.167C111.05 339.326 113.435 342.155 113.648 345.31C114.032 350.985 107.453 355.572 107.97 361.238C108.148 363.192 109.171 364.977 110.149 366.711C111.127 368.445 112.103 370.264 112.175 372.224C112.247 374.184 111.147 376.323 109.148 376.904C108.79 374.873 107.848 372.935 106.448 371.348C103.336 373.3 105.875 378.441 103.459 381.122C102.718 381.944 101.613 382.391 100.528 382.744C96.679 383.997 92.59 384.428 88.54 384.85C87.768 383.543 86.997 382.237 86.225 380.93C85.992 382.504 86.175 384.13 86.756 385.623C81.752 386.976 76.518 387.576 71.313 387.394C68.537 387.297 65.533 386.874 63.599 385.007C61.918 383.385 61.404 380.999 61.264 378.741C61.02 374.797 61.696 370.805 63.231 367.126C64.265 364.649 65.705 362.22 65.768 359.561C65.882 354.781 61.581 350.846 60.796 346.121C59.711 339.592 65.461 333.754 66.221 327.185C66.619 323.748 65.621 320.293 65.757 316.838C65.893 313.383 67.717 309.515 71.307 308.716C71.307 308.716 72.347 302.792 77.612 301.379C82.877 299.969 114.182 301.759 114.39 312.423Z" fill="#272527"/>
<path d="M140.007 308.062C142.245 314.229 139.084 321.045 132.931 323.322L85.887 340.724C83.992 341.416 81.883 340.542 81.031 338.714L72.896 321.242C70.093 315.222 72.876 308.087 79.01 305.543C85.825 302.715 94.256 299.532 99.735 298.575C110.754 296.651 114.831 304.204 114.831 304.204L125.026 300.812C131.159 298.771 137.802 301.986 140.007 308.062Z" fill="#B78876"/>
<path d="M86.357 306.668C87.056 306.4 87.859 306.772 88.152 307.496C88.444 308.22 88.117 309.024 87.418 309.292C86.719 309.56 85.915 309.189 85.622 308.465C85.329 307.741 85.658 306.936 86.357 306.668Z" fill="#272527"/>
<path d="M84.075 305.871C84.307 305.977 83.904 307.25 84.402 308.691C84.879 310.137 85.984 310.941 85.861 311.158C85.809 311.262 85.436 311.201 84.942 310.855C84.452 310.516 83.862 309.854 83.558 308.954C83.255 308.054 83.327 307.185 83.516 306.635C83.704 306.075 83.969 305.816 84.075 305.871Z" fill="#272527"/>
<path d="M91.045 321.025C91.744 320.757 92.548 321.129 92.84 321.853C93.133 322.577 92.805 323.381 92.106 323.649C91.407 323.917 90.603 323.546 90.31 322.822C90.017 322.097 90.346 321.293 91.045 321.025Z" fill="#272527"/>
<path d="M89.206 319.954C89.438 320.061 89.035 321.335 89.533 322.774C90.01 324.22 91.115 325.024 90.992 325.241C90.94 325.344 90.567 325.285 90.073 324.938C89.583 324.599 88.993 323.937 88.689 323.037C88.386 322.137 88.458 321.268 88.647 320.717C88.836 320.16 89.1 319.9 89.206 319.954Z" fill="#272527"/>
<path d="M98.106 311.053C98.026 311.088 97.564 310.245 96.88 308.856C96.716 308.501 96.523 308.178 96.25 308.202C95.954 308.206 95.61 308.497 95.243 308.822C94.471 309.474 93.661 310.156 92.812 310.873C89.338 313.755 86.431 315.975 86.316 315.834C86.201 315.693 88.924 313.243 92.398 310.361C93.258 309.659 94.077 308.989 94.861 308.35C95.232 308.067 95.624 307.665 96.241 307.663C96.55 307.668 96.843 307.869 96.987 308.084C97.14 308.295 97.215 308.501 97.288 308.68C97.869 310.114 98.186 311.019 98.106 311.053Z" fill="#272527"/>
<path d="M114.83 304.204C114.83 304.204 117.694 311.078 115.897 319.479C115.897 319.479 122.002 313.695 117.437 303.572L114.83 304.204Z" fill="#AA6550"/>
<path d="M101.791 310.47C101.283 311.224 101.218 312.262 101.625 313.131C101.907 313.734 102.425 314.263 103.065 314.468C103.705 314.674 104.456 314.505 104.823 313.993C105.237 313.416 105.084 312.559 104.653 311.938C104.221 311.317 103.565 310.88 102.921 310.472C102.743 310.36 102.558 310.245 102.354 310.206C102.149 310.167 101.918 310.224 101.818 310.392" fill="#AA6550"/>
<path d="M100.559 314.955C100.465 314.725 102.03 314.185 102.681 312.464C103.337 310.744 102.589 309.136 102.804 309.049C102.895 308.993 103.235 309.316 103.496 310.014C103.757 310.697 103.881 311.781 103.482 312.835C103.081 313.886 102.293 314.549 101.668 314.823C101.035 315.107 100.587 315.065 100.559 314.955Z" fill="#272527"/>
<path d="M86.459 320.172C86.9 320.18 87.208 321.684 87.992 323.305C88.744 324.943 89.707 326.137 89.432 326.482C89.298 326.64 88.848 326.529 88.279 326.107C87.712 325.69 87.053 324.941 86.591 323.964C86.132 322.986 85.974 322.001 86.013 321.299C86.051 320.593 86.252 320.174 86.459 320.172Z" fill="#272527"/>
<path d="M80.084 307.833C80.498 307.974 80.499 309.084 80.893 310.285C81.244 311.499 81.87 312.416 81.607 312.766C81.476 312.925 81.093 312.879 80.631 312.543C80.173 312.214 79.67 311.572 79.413 310.742C79.158 309.912 79.211 309.099 79.403 308.569C79.596 308.03 79.885 307.776 80.084 307.833Z" fill="#272527"/>
<path d="M70.1621 314.941C70.8401 310.914 72.9331 323.065 76.9341 323.885C78.8051 324.268 80.7421 324.013 82.6491 324.121C84.5561 324.229 86.6081 324.819 87.6891 326.394C88.7111 327.882 88.7301 330.055 90.1861 331.123C91.4541 332.052 93.2021 331.699 94.7681 331.825C98.2611 332.107 101.093 334.994 102.424 338.236C103.755 341.478 103.89 345.063 104.124 348.56C104.359 352.056 104.748 355.668 106.498 358.703L81.3291 344.963C81.3291 344.963 68.5411 324.57 70.1621 314.941Z" fill="#272527"/>
<path d="M99.108 333.67C98.683 335.49 100.157 338.324 101.965 338.795C103.774 339.265 105.808 338.274 106.695 336.63C107.583 334.985 107.837 333.695 106.752 332.174" fill="#B78876"/>
<path d="M76.63 382.678C76.615 382.668 76.753 382.416 77.029 381.942C77.327 381.428 77.726 380.738 78.228 379.87C78.732 378.963 79.338 377.845 79.893 376.486C80.449 375.131 80.941 373.517 81.074 371.684C81.191 369.87 80.951 367.786 79.832 365.949C78.742 364.093 76.943 362.576 75.072 360.989C74.139 360.186 73.179 359.347 72.316 358.361C71.456 357.379 70.698 356.22 70.303 354.887C69.918 353.553 69.907 352.113 70.166 350.729C70.42 349.34 70.901 347.996 71.428 346.674C72.487 344.043 73.692 341.51 73.903 338.887C73.976 337.586 73.781 336.305 73.292 335.148C72.801 333.99 72.108 332.948 71.393 331.957C70.677 330.965 69.936 330.016 69.293 329.028C68.653 328.038 68.107 327.028 67.684 326.004C66.83 323.962 66.417 321.895 66.451 320.007C66.47 318.117 66.937 316.428 67.599 315.089C68.253 313.741 69.074 312.719 69.842 312.005C70.614 311.291 71.313 310.855 71.806 310.61C72.047 310.477 72.249 310.411 72.377 310.353C72.508 310.3 72.576 310.278 72.58 310.286C72.623 310.352 71.468 310.705 69.984 312.151C69.253 312.872 68.476 313.889 67.864 315.214C67.244 316.532 66.816 318.174 66.821 320.01C66.811 321.844 67.234 323.85 68.084 325.836C68.505 326.831 69.047 327.814 69.678 328.777C70.313 329.739 71.055 330.678 71.784 331.676C72.511 332.673 73.232 333.74 73.753 334.956C74.274 336.171 74.491 337.552 74.414 338.922C74.194 341.685 72.959 344.257 71.913 346.868C70.861 349.454 70.049 352.214 70.794 354.743C71.546 357.263 73.566 359.034 75.387 360.627C77.239 362.218 79.08 363.78 80.206 365.733C81.365 367.675 81.587 369.851 81.443 371.713C81.283 373.597 80.753 375.238 80.164 376.6C79.575 377.967 78.938 379.079 78.405 379.974C77.867 380.867 77.424 381.543 77.12 381.999C76.814 382.453 76.645 382.687 76.63 382.678Z" fill="#455A64"/>
<path d="M94.349 384.927C94.286 384.898 94.902 383.923 95.453 381.96C96.005 380.023 96.348 376.976 95.357 373.474C94.871 371.731 93.983 369.917 92.661 368.259C91.346 366.585 89.468 365.245 87.471 363.891C85.484 362.537 83.295 361.084 81.67 358.915C80.867 357.841 80.212 356.585 79.944 355.196C79.664 353.804 79.868 352.34 80.285 350.99C81.119 348.292 82.561 345.87 82.568 343.276C82.586 340.694 81.316 338.369 79.844 336.518C78.36 334.636 76.592 333.154 75.015 331.684C73.427 330.227 72 328.768 70.968 327.223C68.831 324.117 68.806 320.772 69.499 318.847C69.849 317.866 70.329 317.194 70.706 316.804C70.882 316.596 71.057 316.477 71.157 316.382C71.263 316.292 71.32 316.25 71.326 316.257C71.41 316.31 70.333 316.965 69.692 318.911C69.079 320.796 69.163 324.035 71.273 327.016C72.299 328.511 73.712 329.929 75.307 331.366C76.888 332.815 78.685 334.297 80.22 336.219C81.734 338.106 83.087 340.519 83.078 343.279C83.066 346.057 81.579 348.528 80.783 351.14C80.38 352.449 80.195 353.808 80.452 355.098C80.699 356.389 81.31 357.577 82.078 358.609C83.63 360.695 85.754 362.127 87.742 363.495C89.732 364.861 91.65 366.245 92.997 367.989C94.346 369.712 95.236 371.585 95.71 373.374C96.678 376.972 96.266 380.069 95.647 382.016C95.028 383.989 94.349 384.927 94.349 384.927Z" fill="#455A64"/>
<path d="M64.148 385.045C64.148 385.045 63.849 385.102 63.286 385.016C62.725 384.939 61.896 384.693 61.001 384.071C60.122 383.445 59.178 382.436 58.58 380.999C57.999 379.561 57.816 377.75 58.129 375.839C58.418 373.918 59.199 371.927 60.169 369.899C61.123 367.863 62.277 365.749 62.965 363.35C63.306 362.155 63.528 360.889 63.495 359.599C63.473 358.309 63.131 357.021 62.631 355.76C62.14 354.494 61.502 353.248 60.963 351.92C60.424 350.599 59.977 349.159 59.976 347.65C59.934 344.611 61.273 341.926 62.434 339.468C63.629 337.004 64.789 334.596 65.069 332.124C65.38 329.655 64.681 327.313 64.15 325.144C63.597 322.975 63.169 320.852 63.417 318.908C63.628 316.974 64.295 315.311 65.084 314C65.865 312.675 66.788 311.705 67.599 311.002C68.41 310.289 69.15 309.885 69.639 309.607C70.151 309.366 70.421 309.248 70.429 309.264C70.467 309.326 69.318 309.733 67.734 311.154C66.957 311.868 66.074 312.839 65.336 314.147C64.589 315.442 63.965 317.071 63.784 318.945C63.567 320.822 64 322.877 64.569 325.037C65.112 327.191 65.854 329.582 65.546 332.177C65.265 334.761 64.079 337.225 62.894 339.687C61.735 342.146 60.451 344.772 60.496 347.639C60.496 349.06 60.916 350.426 61.443 351.724C61.968 353.026 62.605 354.276 63.106 355.574C63.615 356.862 63.975 358.227 63.992 359.587C64.02 360.943 63.782 362.256 63.425 363.482C62.703 365.946 61.521 368.069 60.558 370.085C59.576 372.094 58.796 374.033 58.492 375.898C58.165 377.753 58.318 379.501 58.85 380.891C59.398 382.279 60.286 383.276 61.119 383.906C61.968 384.533 62.761 384.803 63.304 384.912C63.85 385.03 64.149 385.011 64.148 385.045Z" fill="#272527"/>
<path d="M271.386 329.008C271.359 329.032 270.994 328.679 270.356 328.02C269.648 327.293 268.738 326.361 267.648 325.243C265.35 322.912 262.097 319.768 258.316 316.507C254.53 313.25 250.938 310.499 248.292 308.571C247.025 307.659 245.968 306.898 245.144 306.305C244.398 305.772 243.995 305.464 244.014 305.433C244.034 305.403 244.475 305.655 245.256 306.136C246.04 306.614 247.151 307.341 248.504 308.27C251.212 310.125 254.854 312.841 258.655 316.111C262.451 319.384 265.677 322.584 267.913 324.986C269.032 326.187 269.916 327.178 270.505 327.883C271.099 328.586 271.413 328.984 271.386 329.008Z" fill="#455A64"/>
<path d="M373.926 421.016C375.055 421.781 375.677 423.145 375.801 424.504C375.925 425.863 375.605 427.224 375.173 428.518C372.175 437.498 363.928 443.805 355.218 447.516C350.128 449.685 344.329 451.157 339.106 449.332C337.539 448.785 335.908 447.723 335.674 446.08C335.527 445.046 335.976 444.028 336.436 443.09C339.176 437.51 342.74 432.29 347.28 428.044C351.82 423.798 357.366 420.55 363.416 419.119C366.878 418.3 370.919 418.221 373.556 420.607" fill="#455A64"/>
<path d="M360.174 414.936C360.174 414.936 375.774 430.81 379.207 436.43C382.639 442.051 386.096 456.735 386.096 456.735L360.324 455.861L362.075 440.083L348.428 428.599C348.428 428.599 351.265 423.485 353.386 419.64C355.506 415.794 360.174 414.936 360.174 414.936Z" fill="#B78876"/>
<path d="M363.96 440.557L360.967 450.069C360.967 450.069 355.877 450.66 356.029 452.58C356.181 454.5 356.321 456.733 356.321 456.733L386.096 456.736L363.96 440.557Z" fill="#B78876"/>
<path d="M308.709 361.81C312.575 364.556 307.081 353.585 303.819 349.275C299.89 344.083 298.532 339.681 298.532 339.681L312.273 310.878L293.698 301.698L278.838 331.655C277.962 332.749 278 334.326 278.956 335.35L308.709 361.81Z" fill="#B78876"/>
<path d="M227.177 279.082L250.334 271.551L306.064 254.488C313.828 252.111 322.255 254.738 327.293 261.106C332.377 267.533 332.954 276.435 328.742 283.464L316.537 331.598C312.38 333.705 307.302 332.056 305.175 327.909L303.901 325.426C299.866 319.392 292.461 316.562 285.43 318.369L294.028 293.071L255.027 314.913L230.679 303.056L227.177 279.082Z" fill="#272527"/>
<path d="M258.91 317.13L374.641 421.494L371.437 422.047C364.077 422.26 357.737 427.296 355.864 434.416C353.756 442.434 346.054 447.666 337.824 446.673L335.75 446.423C266.376 383.038 215.223 335.28 217.321 337.655L236.072 298.909L258.91 317.13Z" fill="#272527"/>
<path d="M220.832 279.669C220.832 279.669 224.934 312.063 211.218 335.71L220.386 340.06L244.889 306.509L236.192 276.15L220.832 279.669Z" fill="#272527"/>
<path d="M224.867 278.745C224.885 278.744 224.918 278.957 224.963 279.363C225.01 279.825 225.069 280.414 225.143 281.141C225.311 282.751 225.542 284.967 225.824 287.677C226.106 290.437 226.47 293.731 226.547 297.414C226.647 301.095 226.378 305.154 225.71 309.35C224.412 317.765 221.555 325.054 218.713 329.839C217.306 332.244 215.963 334.062 214.979 335.266C214.495 335.874 214.074 336.311 213.805 336.618C213.529 336.92 213.378 337.073 213.365 337.061C213.351 337.049 213.476 336.873 213.725 336.549C213.968 336.22 214.362 335.765 214.819 335.14C215.75 333.903 217.037 332.065 218.393 329.655C221.131 324.858 223.905 317.624 225.195 309.266C225.859 305.098 226.14 301.078 226.067 297.421C226.017 293.764 225.692 290.475 225.457 287.711C225.21 284.947 225.028 282.706 224.94 281.155C224.891 280.38 224.872 279.777 224.858 279.368C224.846 278.961 224.849 278.746 224.867 278.745Z" fill="#455A64"/>
<path d="M223.338 304.821C223.325 304.834 223.224 304.754 223.042 304.59C222.865 304.421 222.606 304.168 222.308 303.81C221.71 303.1 220.917 301.977 220.32 300.405C220.175 300.01 220.031 299.6 219.925 299.142C219.825 298.688 219.767 298.162 219.961 297.636C220.142 297.139 220.616 296.621 221.278 296.615C221.917 296.615 222.465 297.03 222.763 297.561C223.064 298.094 223.154 298.691 223.228 299.258C223.308 299.832 223.359 300.421 223.391 301.021C223.453 302.222 223.413 303.467 223.301 304.732C223.184 305.998 223.004 307.224 222.789 308.399C222.675 308.984 222.563 309.559 222.454 310.123C222.338 310.682 222.213 311.269 221.89 311.785C221.583 312.308 220.981 312.678 220.376 312.67C220.072 312.674 219.75 312.561 219.524 312.341C219.299 312.126 219.18 311.828 219.15 311.552C219.097 310.995 219.259 310.512 219.427 310.084C219.593 309.659 219.776 309.26 219.958 308.885C220.696 307.384 221.512 306.295 222.114 305.589C222.719 304.882 223.114 304.549 223.135 304.57C223.226 304.635 221.682 306.066 220.291 309.043C220.123 309.415 219.955 309.809 219.803 310.228C219.65 310.634 219.528 311.081 219.579 311.498C219.623 311.913 219.945 312.231 220.377 312.212C220.813 312.201 221.241 311.955 221.485 311.531C221.742 311.112 221.86 310.581 221.968 310.024C222.073 309.463 222.18 308.891 222.289 308.309C222.495 307.143 222.669 305.931 222.784 304.685C222.894 303.44 222.936 302.219 222.883 301.045C222.855 300.458 222.81 299.883 222.737 299.323C222.671 298.762 222.584 298.225 222.347 297.797C222.125 297.379 221.695 297.074 221.283 297.073C220.872 297.064 220.52 297.401 220.365 297.794C220.066 298.606 220.437 299.523 220.667 300.28C221.203 301.821 221.929 302.949 222.468 303.686C223.011 304.424 223.369 304.791 223.338 304.821Z" fill="#455A64"/>
<path d="M312.811 373.032C312.824 373.02 313.009 373.198 313.347 373.549C313.717 373.941 314.203 374.457 314.811 375.101C316.056 376.472 317.852 378.464 319.967 381.015C324.21 386.101 329.792 393.387 335.16 401.965C337.831 406.263 340.306 410.392 342.256 414.341C343.202 416.327 343.926 418.321 344.256 420.269C344.592 422.209 344.525 424.106 344.021 425.719C343.02 428.971 340.793 430.949 339.07 431.645C338.208 432.03 337.469 432.107 336.983 432.147C336.49 432.145 336.235 432.135 336.236 432.117C336.218 432.021 337.313 432.239 338.988 431.46C339.813 431.078 340.746 430.427 341.6 429.452C342.45 428.48 343.21 427.174 343.669 425.614C344.132 424.055 344.177 422.232 343.832 420.343C343.492 418.451 342.771 416.503 341.824 414.547C339.874 410.656 337.381 406.521 334.72 402.241C329.366 393.686 323.846 386.385 319.683 381.248C317.608 378.672 315.857 376.646 314.659 375.235C314.082 374.564 313.62 374.027 313.269 373.619C312.956 373.246 312.798 373.044 312.811 373.032Z" fill="#455A64"/>
<path d="M354.185 418.28C354.24 418.273 354.409 419.022 354.354 420.254C354.304 421.481 353.956 423.187 353.104 424.877C352.246 426.564 351.077 427.854 350.118 428.621C349.157 429.395 348.454 429.703 348.427 429.653C348.381 429.579 349.007 429.163 349.875 428.344C350.744 427.529 351.816 426.259 352.64 424.641C353.456 423.019 353.845 421.404 353.987 420.221C354.133 419.038 354.098 418.287 354.185 418.28Z" fill="#455A64"/>
<path d="M379.951 450.885C379.935 450.962 378.855 450.78 377.108 450.547C375.361 450.313 372.939 450.058 370.254 449.971C367.568 449.888 365.135 449.989 363.377 450.113C361.618 450.235 360.53 450.349 360.518 450.271C360.508 450.207 361.58 449.964 363.342 449.747C365.103 449.529 367.559 449.368 370.27 449.451C372.981 449.539 375.421 449.855 377.165 450.184C378.911 450.511 379.965 450.822 379.951 450.885Z" fill="#AA6550"/>
<path d="M369.437 437.425C369.486 437.56 367.859 438.275 365.802 439.023C363.745 439.77 362.038 440.266 361.989 440.131C361.94 439.996 363.567 439.281 365.624 438.533C367.681 437.786 369.388 437.29 369.437 437.425Z" fill="#AA6550"/>
<path d="M302.647 271.856C302.716 271.897 302.059 273.097 301.072 275.069C300.084 277.04 298.795 279.801 297.587 282.938C296.383 286.078 295.491 288.992 294.906 291.118C294.319 293.244 294.003 294.575 293.925 294.559C293.89 294.552 293.928 294.211 294.027 293.599C294.123 292.986 294.299 292.107 294.549 291.027C295.046 288.867 295.889 285.914 297.101 282.752C298.318 279.592 299.669 276.835 300.746 274.898C301.284 273.929 301.741 273.157 302.08 272.638C302.417 272.116 302.617 271.838 302.647 271.856Z" fill="#455A64"/>
<path d="M295.477 276.808C295.633 276.842 294.978 279.87 294.83 283.663C294.661 287.457 295.059 290.528 294.902 290.549C294.836 290.559 294.651 289.801 294.495 288.553C294.338 287.305 294.231 285.564 294.31 283.642C294.392 281.721 294.643 279.995 294.904 278.765C295.165 277.533 295.412 276.793 295.477 276.808Z" fill="#455A64"/>
<path d="M459.646 158.347H312.702V165.909H459.646V158.347Z" fill="#455A64"/>
<path d="M439.796 89.631C439.804 89.627 439.772 89.556 439.703 89.421C439.616 89.261 439.512 89.067 439.385 88.831C439.094 88.319 438.641 87.576 437.994 86.66C436.689 84.861 434.587 82.268 431.122 80.166C429.394 79.138 427.322 78.247 424.956 77.901C422.603 77.565 419.985 77.74 417.465 78.686C414.96 79.606 412.522 81.359 411.056 83.934C409.583 86.504 409.108 89.523 408.247 92.408C407.809 93.851 407.257 95.241 406.457 96.45C405.654 97.657 404.56 98.607 403.414 99.449C402.267 100.294 401.069 101.056 399.983 101.944C398.897 102.834 397.957 103.862 397.196 104.965C395.665 107.176 394.802 109.623 394.339 111.941C393.871 114.269 393.824 116.495 393.957 118.496C394.24 122.51 395.086 125.66 395.634 127.821C395.919 128.902 396.158 129.736 396.323 130.301C396.49 130.865 396.586 131.159 396.603 131.155C396.62 131.15 396.558 130.847 396.425 130.275C396.279 129.659 396.081 128.825 395.831 127.773C395.343 125.601 394.557 122.447 394.325 118.475C394.216 116.494 394.285 114.307 394.763 112.027C395.234 109.756 396.095 107.374 397.59 105.239C398.334 104.173 399.242 103.189 400.297 102.33C401.356 101.47 402.548 100.717 403.717 99.86C404.882 99.009 406.037 98.014 406.888 96.739C407.732 95.468 408.301 94.027 408.746 92.558C409.617 89.623 410.091 86.647 411.499 84.187C412.889 81.729 415.214 80.037 417.633 79.135C420.064 78.207 422.608 78.02 424.895 78.328C427.19 78.644 429.229 79.494 430.934 80.482C434.358 82.503 436.486 85.03 437.83 86.779C438.497 87.67 438.976 88.392 439.295 88.885C439.608 89.383 439.78 89.64 439.796 89.631Z" fill="#E0E0E0"/>
<path d="M402.067 100.211C402.862 99.472 403.248 99.986 404.316 100.18C405.384 100.374 406.351 100.943 407.2 101.619C410.894 104.564 412.528 109.852 411.137 114.368C407.74 114.554 404.306 112.75 402.532 109.847C400.758 106.944 400.717 103.066 402.431 100.127" fill="#E0E0E0"/>
<path d="M434.703 85.355C435.103 84.346 435.673 84.644 436.72 84.36C437.767 84.076 438.885 84.173 439.942 84.419C444.544 85.488 448.293 89.56 448.981 94.234C445.994 95.863 442.118 95.712 439.268 93.855C436.417 91.998 434.712 88.514 434.995 85.124" fill="#E0E0E0"/>
<path d="M394.88 120.316C397.042 117.817 400.385 116.386 403.685 116.547C406.986 116.708 410.173 118.456 412.082 121.154C409.672 123.363 406.43 124.641 403.16 124.672C399.891 124.703 396.625 123.199 394.173 121.037" fill="#E0E0E0"/>
<path d="M397.559 105.301C394.243 105.397 390.916 103.913 388.774 101.381C386.631 98.849 385.717 95.323 386.359 92.069C389.83 91.274 393.692 92.517 396.047 95.189C398.402 97.861 399.151 101.848 397.927 105.193" fill="#E0E0E0"/>
<path d="M409.046 87.651C405.951 88.843 402.32 88.549 399.457 86.873C396.594 85.197 394.56 82.175 394.085 78.892C397.095 76.988 401.151 76.878 404.26 78.615C407.369 80.352 409.401 83.864 409.357 87.426" fill="#E0E0E0"/>
<path d="M412.897 81.888C415.992 80.696 419.624 80.99 422.486 82.666C425.348 84.342 427.383 87.364 427.858 90.647C424.848 92.551 420.792 92.661 417.683 90.924C414.574 89.187 412.542 85.675 412.586 82.114" fill="#E0E0E0"/>
<path d="M417.486 78.785C414.344 77.722 411.74 75.174 410.611 72.055C409.482 68.936 409.85 65.312 411.584 62.484C415.115 62.945 418.304 65.454 419.584 68.777C420.863 72.101 420.18 76.1 417.869 78.81" fill="#E0E0E0"/>
<path d="M429.249 79.347C428.118 76.229 428.485 72.604 430.217 69.775C431.949 66.946 435.011 64.972 438.303 64.562C440.147 67.609 440.176 71.666 438.378 74.74C436.579 77.814 433.028 79.775 429.468 79.661" fill="#E0E0E0"/>
<path d="M381.829 158.861L375.563 119.525L423.591 120.108L418.853 158.347" fill="#272527"/>
<path d="M402.553 112.34C405.132 113.951 408.157 114.208 410.523 113.015C412.889 111.822 414.544 109.207 414.884 106.124C412.237 104.858 409.346 104.71 406.927 105.716C404.508 106.722 402.585 108.874 401.635 111.637" fill="#8AD650"/>
<path d="M424.508 120.811C427.087 122.422 430.112 122.679 432.478 121.486C434.844 120.293 436.499 117.678 436.839 114.596C434.192 113.33 431.301 113.182 428.882 114.188C426.463 115.194 424.54 117.346 423.59 120.109" fill="#8AD650"/>
<path d="M412.185 101.893C413.453 104.657 415.839 106.535 418.471 106.839C421.103 107.144 423.924 105.87 425.902 103.482C424.387 100.969 422.054 99.256 419.48 98.766C416.907 98.277 414.117 99.016 411.804 100.801" fill="#8AD650"/>
<path d="M420.198 111.695C417.158 111.651 414.436 112.998 413.029 115.243C411.622 117.488 411.559 120.583 412.864 123.396C415.784 123.109 418.335 121.739 419.883 119.627C421.431 117.514 421.963 114.678 421.347 111.822" fill="#8AD650"/>
<path d="M427.934 127.178C426.611 129.916 426.683 132.951 428.124 135.175C429.565 137.398 432.344 138.762 435.445 138.766C436.418 135.998 436.253 133.107 434.991 130.812C433.729 128.516 431.454 127.382 428.605 126.735" fill="#8AD650"/>
<path d="M440.698 128.999C440.653 129.059 440.177 128.306 438.799 127.789C438.12 127.528 437.232 127.367 436.195 127.333C435.155 127.289 433.977 127.433 432.65 127.541C431.336 127.631 429.819 127.721 428.287 127.167C426.74 126.632 425.465 125.283 424.685 123.685C423.865 122.086 423.492 120.231 423.132 118.373C422.759 116.521 422.359 114.574 421.282 112.922C420.22 111.257 418.669 110.018 417.222 108.795C415.764 107.579 414.337 106.347 413.335 104.85C411.344 101.842 411.004 98.433 411.401 95.811C411.801 93.15 412.851 91.173 413.758 89.999C414.227 89.417 414.607 88.983 414.91 88.73C415.197 88.463 415.352 88.331 415.364 88.344C415.376 88.357 415.244 88.516 414.984 88.804C414.708 89.077 414.357 89.528 413.921 90.118C413.079 91.308 412.107 93.264 411.764 95.86C411.422 98.42 411.8 101.716 413.73 104.58C414.694 105.999 416.085 107.193 417.547 108.403C418.995 109.621 420.592 110.881 421.719 112.641C422.862 114.401 423.263 116.42 423.631 118.275C423.985 120.144 424.339 121.936 425.113 123.472C425.852 125.006 427.017 126.252 428.437 126.763C429.849 127.296 431.32 127.242 432.623 127.174C433.933 127.092 435.141 126.97 436.205 127.043C437.266 127.106 438.179 127.302 438.87 127.602C439.567 127.892 440.039 128.258 440.315 128.537C440.462 128.669 440.549 128.794 440.612 128.872C440.677 128.95 440.705 128.993 440.698 128.999Z" fill="#8AD650"/>
<path d="M440.698 128.999C440.653 129.059 440.177 128.306 438.799 127.789C438.12 127.528 437.232 127.367 436.195 127.333C435.155 127.289 433.977 127.433 432.65 127.541C431.336 127.631 429.819 127.721 428.287 127.167C426.74 126.632 425.465 125.283 424.685 123.685C423.865 122.086 423.492 120.231 423.132 118.373C422.759 116.521 422.359 114.574 421.282 112.922C420.22 111.257 418.669 110.018 417.222 108.795C415.764 107.579 414.337 106.347 413.335 104.85C411.344 101.842 411.004 98.433 411.401 95.811C411.801 93.15 412.851 91.173 413.758 89.999C414.227 89.417 414.607 88.983 414.91 88.73C415.197 88.463 415.352 88.331 415.364 88.344C415.376 88.357 415.244 88.516 414.984 88.804C414.708 89.077 414.357 89.528 413.921 90.118C413.079 91.308 412.107 93.264 411.764 95.86C411.422 98.42 411.8 101.716 413.73 104.58C414.694 105.999 416.085 107.193 417.547 108.403C418.995 109.621 420.592 110.881 421.719 112.641C422.862 114.401 423.263 116.42 423.631 118.275C423.985 120.144 424.339 121.936 425.113 123.472C425.852 125.006 427.017 126.252 428.437 126.763C429.849 127.296 431.32 127.242 432.623 127.174C433.933 127.092 435.141 126.97 436.205 127.043C437.266 127.106 438.179 127.302 438.87 127.602C439.567 127.892 440.039 128.258 440.315 128.537C440.462 128.669 440.549 128.794 440.612 128.872C440.677 128.95 440.705 128.993 440.698 128.999Z" fill="#8AD650"/>
<path d="M349.02 133.028C349.22 129.017 347.281 124.961 344.034 122.598C340.787 120.235 336.331 119.637 332.576 121.06C335.346 127.432 341.683 132.109 348.589 132.878" fill="#8AD650"/>
<path d="M345.847 134.703C343.499 137.28 343.65 141.431 345.329 144.486C347.009 147.541 349.901 149.72 352.798 151.659C353.774 148.373 353.641 144.769 352.424 141.564C351.208 138.36 348.915 135.574 346.004 133.764" fill="#8AD650"/>
<path d="M357.225 122.609C357.598 126.36 359.559 129.928 362.526 132.254C365.493 134.58 369.426 135.632 373.158 135.098C372.248 131.324 370.732 127.52 367.816 124.958C364.9 122.395 360.302 121.443 357.073 123.599" fill="#8AD650"/>
<path d="M357.15 118.758C356.561 115.322 353.17 112.829 349.699 112.506C346.228 112.182 342.796 113.665 340.013 115.764C342.096 118.15 345.11 119.702 348.262 120.014C351.414 120.325 354.673 119.392 357.183 117.46" fill="#8AD650"/>
<path d="M339.257 147.987C335.959 150.803 335.134 155.818 336.504 159.932C337.874 164.046 341.085 167.326 344.691 169.733C346.076 165.654 346.945 161.282 346.214 157.037C345.483 152.792 342.926 148.692 338.981 146.962" fill="#8AD650"/>
<path d="M356.615 109.117C358.353 106.556 361.32 104.872 364.409 104.691C367.499 104.51 370.641 105.837 372.666 108.178C371.328 111.179 368.178 113.282 364.893 113.367C361.608 113.452 358.354 111.513 356.863 108.585" fill="#8AD650"/>
<path d="M360.657 99.208C357.107 100.288 353.104 99.775 349.941 97.835C346.778 95.895 344.505 92.561 343.857 88.907C346.5 88.673 349.18 88.556 351.792 89.023C354.404 89.49 356.966 90.584 358.818 92.484C360.67 94.384 361.197 96.61 360.657 99.208Z" fill="#8AD650"/>
<path d="M368.275 96.644C365.826 94.642 364.335 91.515 364.322 88.351C364.309 85.187 365.774 82.048 368.207 80.026C370.58 82.911 372.216 86.398 372.917 90.068C373.18 91.443 373.309 92.89 372.881 94.224C372.453 95.557 371.36 96.752 369.973 96.944" fill="#8AD650"/>
<g opacity="0.4">
<path d="M349.02 133.028C349.22 129.017 347.281 124.961 344.034 122.598C340.787 120.235 336.331 119.637 332.576 121.06C335.346 127.432 341.683 132.109 348.589 132.878" fill="black"/>
</g>
<g opacity="0.4">
<path d="M345.847 134.703C343.499 137.28 343.65 141.431 345.329 144.486C347.009 147.541 349.901 149.72 352.798 151.659C353.774 148.373 353.641 144.769 352.424 141.564C351.208 138.36 348.915 135.574 346.004 133.764" fill="black"/>
</g>
<g opacity="0.4">
<path d="M357.225 122.609C357.598 126.36 359.559 129.928 362.526 132.254C365.493 134.58 369.426 135.632 373.158 135.098C372.248 131.324 370.732 127.52 367.816 124.958C364.9 122.395 360.302 121.443 357.073 123.599" fill="black"/>
</g>
<g opacity="0.4">
<path d="M357.15 118.758C356.561 115.322 353.17 112.829 349.699 112.506C346.228 112.182 342.796 113.665 340.013 115.764C342.096 118.15 345.11 119.702 348.262 120.014C351.414 120.325 354.673 119.392 357.183 117.46" fill="black"/>
</g>
<g opacity="0.4">
<path d="M339.257 147.987C335.959 150.803 335.134 155.818 336.504 159.932C337.874 164.046 341.085 167.326 344.691 169.733C346.076 165.654 346.945 161.282 346.214 157.037C345.483 152.792 342.926 148.692 338.981 146.962" fill="black"/>
</g>
<g opacity="0.4">
<path d="M356.615 109.117C358.353 106.556 361.32 104.872 364.409 104.691C367.499 104.51 370.641 105.837 372.666 108.178C371.328 111.179 368.178 113.282 364.893 113.367C361.608 113.452 358.354 111.513 356.863 108.585" fill="black"/>
</g>
<g opacity="0.4">
<path d="M360.657 99.208C357.107 100.288 353.104 99.775 349.941 97.835C346.778 95.895 344.505 92.561 343.857 88.907C346.5 88.673 349.18 88.556 351.792 89.023C354.404 89.49 356.966 90.584 358.818 92.484C360.67 94.384 361.197 96.61 360.657 99.208Z" fill="black"/>
</g>
<g opacity="0.4">
<path d="M368.275 96.644C365.826 94.642 364.335 91.515 364.322 88.351C364.309 85.187 365.774 82.048 368.207 80.026C370.58 82.911 372.216 86.398 372.917 90.068C373.18 91.443 373.309 92.89 372.881 94.224C372.453 95.557 371.36 96.752 369.973 96.944" fill="black"/>
</g>
<path d="M381.449 120.79C381.44 120.789 381.44 120.697 381.449 120.519C381.462 120.311 381.478 120.051 381.497 119.728C381.542 119.034 381.606 118.009 381.63 116.689C381.637 114.081 381.632 110.141 379.844 105.776C378.929 103.631 377.543 101.389 375.457 99.601C373.41 97.79 370.551 96.582 367.47 96.662C365.944 96.692 364.371 97.04 362.965 97.791C361.542 98.515 360.354 99.705 359.484 101.115C357.743 103.986 357.312 107.593 357.464 111.148C357.59 114.73 358.102 118.266 357.704 121.707C357.502 123.417 357.092 125.085 356.389 126.602C355.701 128.119 354.705 129.484 353.435 130.474C352.171 131.485 350.699 132.051 349.321 132.579C347.931 133.098 346.599 133.606 345.441 134.338C343.105 135.781 341.406 137.814 340.348 139.888C339.278 141.97 338.884 144.105 338.877 145.959C338.864 147.822 339.226 149.411 339.647 150.651C340.517 153.142 341.54 154.262 341.464 154.303C341.457 154.308 341.397 154.239 341.288 154.097C341.181 153.954 341.01 153.748 340.826 153.451C340.439 152.871 339.914 151.972 339.457 150.719C339.001 149.472 338.602 147.862 338.587 145.96C338.566 144.068 338.943 141.871 340.02 139.723C341.085 137.584 342.812 135.478 345.213 133.972C347.588 132.391 350.723 131.998 353.137 130.098C355.561 128.194 356.826 124.954 357.197 121.649C357.58 118.298 357.073 114.787 356.943 111.167C356.791 107.567 357.221 103.853 359.049 100.849C359.962 99.373 361.227 98.113 362.733 97.352C364.22 96.564 365.869 96.208 367.461 96.184C370.667 96.111 373.645 97.395 375.74 99.276C377.879 101.135 379.274 103.441 380.185 105.636C381.091 107.85 381.493 109.99 381.698 111.864C381.89 113.744 381.883 115.372 381.834 116.696C381.779 118.021 381.682 119.045 381.603 119.738C381.562 120.059 381.53 120.318 381.503 120.525C381.475 120.701 381.458 120.791 381.449 120.79Z" fill="#8AD650"/>
<g opacity="0.4">
<path d="M381.449 120.79C381.44 120.789 381.44 120.697 381.449 120.519C381.462 120.311 381.478 120.051 381.497 119.728C381.542 119.034 381.606 118.009 381.63 116.689C381.637 114.081 381.632 110.141 379.844 105.776C378.929 103.631 377.543 101.389 375.457 99.601C373.41 97.79 370.551 96.582 367.47 96.662C365.944 96.692 364.371 97.04 362.965 97.791C361.542 98.515 360.354 99.705 359.484 101.115C357.743 103.986 357.312 107.593 357.464 111.148C357.59 114.73 358.102 118.266 357.704 121.707C357.502 123.417 357.092 125.085 356.389 126.602C355.701 128.119 354.705 129.484 353.435 130.474C352.171 131.485 350.699 132.051 349.321 132.579C347.931 133.098 346.599 133.606 345.441 134.338C343.105 135.781 341.406 137.814 340.348 139.888C339.278 141.97 338.884 144.105 338.877 145.959C338.864 147.822 339.226 149.411 339.647 150.651C340.517 153.142 341.54 154.262 341.464 154.303C341.457 154.308 341.397 154.239 341.288 154.097C341.181 153.954 341.01 153.748 340.826 153.451C340.439 152.871 339.914 151.972 339.457 150.719C339.001 149.472 338.602 147.862 338.587 145.96C338.566 144.068 338.943 141.871 340.02 139.723C341.085 137.584 342.812 135.478 345.213 133.972C347.588 132.391 350.723 131.998 353.137 130.098C355.561 128.194 356.826 124.954 357.197 121.649C357.58 118.298 357.073 114.787 356.943 111.167C356.791 107.567 357.221 103.853 359.049 100.849C359.962 99.373 361.227 98.113 362.733 97.352C364.22 96.564 365.869 96.208 367.461 96.184C370.667 96.111 373.645 97.395 375.74 99.276C377.879 101.135 379.274 103.441 380.185 105.636C381.091 107.85 381.493 109.99 381.698 111.864C381.89 113.744 381.883 115.372 381.834 116.696C381.779 118.021 381.682 119.045 381.603 119.738C381.562 120.059 381.53 120.318 381.503 120.525C381.475 120.701 381.458 120.791 381.449 120.79Z" fill="black"/>
</g>
<path d="M451.377 112.207C451.29 112.189 452.042 111.025 452.095 108.687C452.105 107.536 451.902 106.09 451.16 104.625C450.433 103.169 449.102 101.73 447.243 100.842C446.32 100.397 445.271 100.09 444.157 100.009C443.044 99.923 441.874 100.087 440.705 100.414C438.352 101.032 436.024 102.37 433.241 102.922C431.866 103.189 430.362 103.271 428.913 102.815C427.455 102.381 426.208 101.304 425.387 99.999C423.71 97.397 423.237 94.134 421.212 91.735C420.218 90.544 418.856 89.7259 417.419 89.2559C415.981 88.7679 414.449 88.666 412.986 88.807C410.016 89.052 407.431 90.631 405.613 92.642C403.781 94.669 402.64 97.081 401.954 99.411C401.261 101.755 401.043 104.039 401.137 106.119C401.311 110.286 402.007 113.624 402.383 115.93C402.576 117.051 402.73 117.938 402.842 118.589C402.884 118.868 402.918 119.096 402.945 119.284C402.965 119.441 402.972 119.522 402.963 119.524C402.954 119.526 402.931 119.448 402.893 119.294C402.851 119.11 402.801 118.885 402.739 118.609C402.603 117.963 402.418 117.082 402.184 115.969C401.747 113.67 400.993 110.345 400.769 106.133C400.65 104.03 400.851 101.684 401.539 99.292C402.221 96.908 403.372 94.427 405.257 92.32C406.204 91.278 407.327 90.341 408.626 89.623C409.925 88.903 411.4 88.451 412.933 88.299C414.461 88.148 416.062 88.251 417.579 88.763C419.093 89.256 420.543 90.123 421.607 91.396C423.751 93.966 424.209 97.253 425.815 99.721C426.594 100.959 427.724 101.933 429.063 102.34C430.395 102.766 431.822 102.702 433.151 102.45C435.832 101.937 438.172 100.618 440.593 99.996C441.796 99.669 443.019 99.506 444.189 99.607C445.357 99.702 446.449 100.035 447.405 100.509C449.33 101.455 450.692 102.971 451.421 104.494C452.164 106.023 452.339 107.513 452.298 108.69C452.26 109.877 451.992 110.771 451.779 111.351C451.563 111.935 451.377 112.207 451.377 112.207Z" fill="#8AD650"/>
<path d="M423.29 94.779C425.869 96.39 429.488 96.535 431.854 95.343C434.22 94.15 435.875 91.535 436.215 88.453C433.568 87.187 430.677 87.039 428.258 88.045C425.839 89.051 423.916 91.203 422.966 93.966" fill="#8AD650"/>
<path d="M432.394 103.038C432.36 106.079 434.12 109.245 436.37 110.645C438.62 112.045 441.715 112.097 444.523 110.783C444.226 107.864 442.848 105.318 440.73 103.777C438.612 102.235 435.774 101.713 432.92 102.339" fill="#8AD650"/>
<path d="M448.19 101.207C450.926 102.534 454.54 102.292 456.766 100.854C458.991 99.416 460.358 96.639 460.367 93.538C457.6 92.562 454.709 92.723 452.412 93.981C450.115 95.24 448.432 97.584 447.782 100.432" fill="#8AD650"/>
<path d="M410.024 89.3099C407.722 87.3229 406.18 83.8389 406.62 81.2259C407.06 78.6129 409.069 76.2589 411.914 75.0229C413.906 77.1769 414.902 79.8959 414.655 82.5039C414.409 85.1119 412.922 87.5849 410.563 89.3099" fill="#8AD650"/>
<path d="M348.353 78.001C348.345 77.996 348.377 77.926 348.446 77.791C348.533 77.631 348.637 77.437 348.765 77.201C349.056 76.689 349.509 75.946 350.156 75.03C351.461 73.231 353.563 70.638 357.028 68.536C358.756 67.508 360.828 66.617 363.194 66.271C365.547 65.935 368.166 66.11 370.685 67.056C373.19 67.976 375.628 69.729 377.094 72.304C378.567 74.874 379.042 77.893 379.903 80.778C380.341 82.222 380.893 83.611 381.693 84.82C382.496 86.027 383.59 86.977 384.736 87.819C385.883 88.665 387.081 89.426 388.167 90.314C389.253 91.204 390.193 92.231 390.954 93.334C392.485 95.545 393.348 97.992 393.811 100.31C394.279 102.638 394.326 104.864 394.193 106.865C393.91 110.879 393.064 114.029 392.516 116.19C392.231 117.271 391.992 118.105 391.827 118.67C391.66 119.234 391.564 119.528 391.547 119.524C391.53 119.519 391.592 119.216 391.725 118.644C391.871 118.028 392.069 117.194 392.319 116.142C392.807 113.97 393.593 110.816 393.825 106.844C393.934 104.863 393.865 102.676 393.387 100.396C392.916 98.126 392.055 95.743 390.56 93.608C389.816 92.542 388.908 91.558 387.853 90.699C386.794 89.839 385.602 89.086 384.433 88.229C383.268 87.378 382.113 86.383 381.262 85.108C380.418 83.837 379.849 82.396 379.403 80.927C378.532 77.992 378.058 75.017 376.65 72.556C375.26 70.098 372.935 68.406 370.516 67.504C368.085 66.576 365.541 66.389 363.254 66.697C360.959 67.013 358.92 67.863 357.215 68.851C353.791 70.872 351.663 73.399 350.319 75.148C349.652 76.039 349.173 76.761 348.854 77.254C348.541 77.753 348.368 78.01 348.353 78.001Z" fill="#8AD650"/>
<path d="M386.081 88.581C385.286 87.842 384.9 88.356 383.832 88.55C382.764 88.744 381.797 89.313 380.948 89.989C377.254 92.934 375.62 98.222 377.011 102.738C380.408 102.924 383.842 101.12 385.616 98.217C387.391 95.314 387.431 91.436 385.717 88.497" fill="#8AD650"/>
<path d="M353.446 73.726C353.046 72.717 352.476 73.015 351.429 72.731C350.381 72.447 349.264 72.544 348.207 72.79C343.605 73.859 339.856 77.931 339.168 82.605C342.155 84.234 346.031 84.083 348.881 82.226C351.732 80.369 353.437 76.885 353.153 73.495" fill="#8AD650"/>
<path d="M393.269 108.686C391.107 106.187 387.764 104.756 384.464 104.917C381.163 105.078 377.976 106.827 376.067 109.524C378.477 111.733 381.719 113.011 384.989 113.042C388.258 113.073 391.524 111.569 393.976 109.407" fill="#8AD650"/>
<path d="M390.589 93.672C393.905 93.768 397.232 92.284 399.375 89.752C401.518 87.22 402.432 83.694 401.79 80.439C398.319 79.644 394.456 80.887 392.101 83.559C389.746 86.231 388.997 90.218 390.222 93.563" fill="#8AD650"/>
<path d="M379.103 76.021C382.198 77.213 385.829 76.919 388.692 75.243C391.555 73.567 393.589 70.545 394.064 67.262C391.054 65.358 386.998 65.248 383.889 66.985C380.78 68.722 378.748 72.234 378.792 75.795" fill="#8AD650"/>
<path d="M375.252 70.259C372.157 69.067 368.526 69.361 365.663 71.037C362.8 72.713 360.766 75.735 360.291 79.018C363.301 80.922 367.357 81.032 370.466 79.295C373.575 77.558 375.607 74.046 375.563 70.485" fill="#8AD650"/>
<path d="M370.662 67.156C373.804 66.093 376.408 63.545 377.537 60.426C378.666 57.307 378.298 53.683 376.564 50.855C373.033 51.316 369.844 53.825 368.564 57.148C367.285 60.472 367.968 64.471 370.279 67.181" fill="#8AD650"/>
<path d="M358.899 67.717C360.03 64.599 359.663 60.974 357.931 58.145C356.199 55.316 353.137 53.342 349.845 52.932C348.001 55.979 347.971 60.036 349.77 63.11C351.569 66.184 355.12 68.146 358.68 68.031" fill="#8AD650"/>
<path d="M374.952 154.304L378.627 158.861H423.824L426.903 154.304H374.952Z" fill="#272527"/>
<path d="M425.911 154.261C425.911 154.405 414.805 154.521 401.107 154.521C387.405 154.521 376.301 154.404 376.301 154.261C376.301 154.118 387.405 154.001 401.107 154.001C414.804 154.001 425.911 154.118 425.911 154.261Z" fill="#455A64"/>
<path d="M420.83 137.1C420.843 137.112 420.746 137.239 420.548 137.471C420.352 137.706 420.055 138.044 419.627 138.438C418.788 139.236 417.458 140.3 415.592 141.239C413.725 142.152 411.309 142.939 408.536 143.051C407.155 143.115 405.694 143.004 404.219 142.689C402.747 142.367 401.277 141.845 399.819 141.231C396.906 139.99 394.257 138.577 391.677 137.756C389.114 136.907 386.639 136.668 384.646 137.078C382.641 137.451 381.185 138.336 380.333 139.079C379.476 139.833 379.148 140.396 379.103 140.362C379.088 140.352 379.166 140.213 379.33 139.953C379.499 139.698 379.779 139.339 380.197 138.929C381.029 138.119 382.509 137.149 384.573 136.717C386.628 136.244 389.203 136.457 391.824 137.299C394.465 138.113 397.143 139.526 400.022 140.751C401.464 141.358 402.902 141.872 404.331 142.191C405.759 142.503 407.174 142.621 408.518 142.571C411.216 142.489 413.584 141.759 415.433 140.907C419.144 139.124 420.744 136.986 420.83 137.1Z" fill="#455A64"/>
<path d="M421.279 133.572C421.292 133.585 421.185 133.705 420.969 133.922C420.756 134.142 420.432 134.457 419.98 134.824C419.087 135.565 417.7 136.553 415.797 137.42C413.893 138.264 411.467 138.998 408.692 139.117C407.309 139.185 405.848 139.091 404.363 138.826C402.881 138.55 401.387 138.098 399.895 137.562C396.913 136.478 394.174 135.234 391.557 134.504C388.952 133.753 386.483 133.527 384.467 133.861C382.441 134.159 380.927 134.925 379.991 135.571C379.054 136.23 378.641 136.731 378.603 136.695C378.589 136.683 378.686 136.555 378.885 136.321C379.088 136.091 379.411 135.771 379.871 135.408C380.791 134.696 382.328 133.852 384.406 133.498C386.475 133.106 389.03 133.302 391.685 134.042C394.354 134.76 397.118 136.001 400.07 137.072C401.547 137.603 403.012 138.049 404.457 138.325C405.902 138.589 407.321 138.691 408.671 138.638C411.378 138.549 413.761 137.869 415.649 137.083C419.434 135.437 421.203 133.459 421.279 133.572Z" fill="#455A64"/>
<path d="M356.911 163.923H352.499V176.222H356.911V163.923Z" fill="#455A64"/>
<path d="M419.85 163.923H415.438V176.222H419.85V163.923Z" fill="#455A64"/>
</svg>
