<svg width="500" height="500" viewBox="0 0 500 500" fill="none" xmlns="http://www.w3.org/2000/svg">
<g clip-path="url(#clip0_190_849)">
<path d="M500 0H0V500H500V0Z" fill="white" fill-opacity="0.51"/>
<mask id="mask0_190_849" style="mask-type:luminance" maskUnits="userSpaceOnUse" x="72" y="55" width="352" height="197">
<path d="M423.577 55.056H72.699V251.802H423.577V55.056Z" fill="white"/>
</mask>
<g mask="url(#mask0_190_849)">
<path d="M423.577 50.106H72.699V258.82H423.577V50.106Z" fill="#F3F3F3"/>
</g>
<mask id="mask1_190_849" style="mask-type:luminance" maskUnits="userSpaceOnUse" x="72" y="55" width="352" height="197">
<path d="M423.577 55.056H72.699V251.802H423.577V55.056Z" fill="white"/>
</mask>
<g mask="url(#mask1_190_849)">
<path d="M453.926 118.154H38.687V123.659H453.926V118.154Z" fill="white"/>
</g>
<mask id="mask2_190_849" style="mask-type:luminance" maskUnits="userSpaceOnUse" x="72" y="55" width="352" height="197">
<path d="M423.577 55.056H72.699V251.802H423.577V55.056Z" fill="white"/>
</mask>
<g mask="url(#mask2_190_849)">
<path d="M369.452 49.849H363.661V263.77H369.452V49.849Z" fill="white"/>
<path d="M132.616 49.849H126.825V263.77H132.616V49.849Z" fill="white"/>
</g>
<mask id="mask3_190_849" style="mask-type:luminance" maskUnits="userSpaceOnUse" x="72" y="55" width="352" height="197">
<path d="M423.577 55.056H72.699V251.802H423.577V55.056Z" fill="white"/>
</mask>
<g mask="url(#mask3_190_849)">
<path d="M453.926 152.249H38.055V155.215H453.926V152.249Z" fill="white"/>
<path d="M453.926 161.148H38.055V164.114H453.926V161.148Z" fill="white"/>
<path d="M453.926 170.046H38.055V173.012H453.926V170.046Z" fill="white"/>
<path d="M453.926 178.945H38.055V181.911H453.926V178.945Z" fill="white"/>
<path d="M453.926 187.843H38.055V190.809H453.926V187.843Z" fill="white"/>
<path d="M453.926 205.209H38.055V208.175H453.926V205.209Z" fill="white"/>
<path d="M453.926 214.107H38.055V217.073H453.926V214.107Z" fill="white"/>
<path d="M453.926 223.006H38.055V225.972H453.926V223.006Z" fill="white"/>
<path d="M453.926 196.742H38.055V199.708H453.926V196.742Z" fill="white"/>
</g>
<path d="M462.22 442.325C462.22 438.669 366.372 435.706 248.139 435.706C129.906 435.706 34.058 438.67 34.058 442.325C34.058 445.981 129.906 448.944 248.139 448.944C366.372 448.944 462.22 445.981 462.22 442.325Z" fill="#E2E2E2"/>
<path d="M58.569 359.811C58.506 359.479 58.438 359.149 58.375 358.816C57.942 349.565 42.687 298.211 45.149 260.121C46.233 243.349 57.944 211.376 57.944 211.376C57.944 211.376 69.41 240.252 70.168 257.333C71.595 289.497 67.089 331.056 64.11 359.405C62.267 359.508 60.419 359.636 58.569 359.811Z" fill="#40746E"/>
<path d="M57.4861 384.7C55.6441 384.72 56.5541 384.655 54.7181 384.761C51.7761 353.153 32.6321 324.295 27.8301 292.258C23.7861 265.28 28.2961 243.533 28.2961 243.533C28.2961 243.533 49.8881 270.81 55.9421 302.173C60.3281 324.893 58.0051 380.146 57.4861 384.7Z" fill="#529665"/>
<path d="M34.669 297.81C43.102 315.249 51.118 349.731 55.038 376.757C54.524 376.825 54.012 376.899 53.503 376.985C45.204 348.169 27.322 320.339 18.508 301.541C15.581 295.299 8.53003 275.126 8.53003 275.126C8.53003 275.126 25.18 278.187 34.669 297.81Z" fill="#96CF90"/>
<path d="M58.835 377.001C54.45 342.715 59.373 299.996 70.348 278.191C78.678 261.641 94.2171 244.089 94.2171 244.089C94.2171 244.089 92.257 272.778 90.754 284.081C86.863 313.35 64.692 339.665 60.717 376.922L58.835 377.001Z" fill="#96CF90"/>
<path d="M58.494 374.136C58.877 372.381 59.285 370.641 59.732 368.925C64.278 348.6 73.778 321 84.331 300.553C93.269 283.235 111.043 272.76 111.043 272.76C111.043 272.76 107.472 300.127 94.312 318.49C83.09 334.15 69.19 351.461 61.078 374.662C59.685 374.318 59.914 374.387 58.494 374.136Z" fill="#529665"/>
<path d="M77.449 440.706H39.54L33.651 359.154H83.337L77.449 440.706Z" fill="#313858"/>
<path d="M393.437 363.405H291.127V443.067H393.437V363.405Z" fill="#DDCFC7"/>
<path d="M393.437 363.405H291.127V388.616H393.437V363.405Z" fill="#C9BCB5"/>
<path d="M371.253 322.798H313.311C295.497 322.798 281.056 337.239 281.056 355.053V362.041C281.056 365.905 284.188 369.037 288.051 369.037H396.511C400.374 369.037 403.507 365.905 403.507 362.041V355.053C403.507 337.239 389.066 322.798 371.253 322.798Z" fill="#E5DCD2"/>
<path d="M245.7 412.159C245.7 412.159 255.538 413.3 259.662 413.114C259.662 413.114 258.647 428.699 257.696 431.996C256.745 435.293 256.109 437.376 256.109 437.376L240.154 431.487C240.154 431.487 241.923 428.452 242.957 425.517C243.991 422.581 245.7 412.159 245.7 412.159Z" fill="#BD8368"/>
<path d="M264.095 441.096C261.427 444.281 252.147 442.775 239.145 443.436C226.143 444.097 217.365 443.959 217.599 441.874C217.71 440.937 217.81 440.061 218.253 439.266C218.823 438.283 222.368 435.095 224.696 434.435C228.891 433.234 233.555 428.83 236.203 426.952C238.862 425.087 240.082 424.062 241.466 422.866C243.677 420.961 248.849 422.94 253.466 423.896C258.094 424.841 257.678 423.937 259.663 423.058C261.303 422.335 263.912 426.109 264.071 430.012C264.096 430.825 264.122 431.625 264.158 432.401C264.343 436.905 266.752 437.91 264.095 441.096Z" fill="#313858"/>
<path d="M329.838 412.159C329.838 412.159 339.676 413.3 343.8 413.114C343.8 413.114 342.785 428.699 341.834 431.996C340.883 435.293 340.248 437.376 340.248 437.376L324.293 431.487C324.293 431.487 326.062 428.452 327.096 425.517C328.129 422.581 329.838 412.159 329.838 412.159Z" fill="#BD8368"/>
<path d="M348.232 441.096C345.564 444.281 341.886 442.775 328.884 443.436C315.882 444.097 308.077 443.959 308.311 441.874C308.422 440.937 308.522 440.061 308.965 439.266C309.534 438.283 314.042 434.206 316.69 432.328C319.349 430.463 324.218 424.061 325.601 422.866C327.812 420.961 332.984 422.94 337.602 423.896C342.23 424.841 341.814 423.937 343.799 423.058C345.439 422.335 348.048 426.109 348.207 430.012C348.232 430.825 348.258 431.625 348.294 432.401C348.481 436.905 350.89 437.91 348.232 441.096Z" fill="#313858"/>
<path d="M317.808 283.311C311.61 283.754 276.206 307.954 268.174 312.26C262.493 315.306 259.32 320.229 257.106 328.198C254.892 336.167 239.145 412.458 239.145 412.458C239.145 412.458 250.974 417.011 270.896 419.169L290.046 347.428C290.046 347.428 316.584 327.695 331.636 323.711C346.688 319.727 359.867 286.742 359.867 286.742L340.829 281.098L317.808 283.311Z" fill="#4DA7AF"/>
<path d="M351.157 282.316C349.742 283.109 348.55 300.142 344.319 303.122C332.345 311.558 313.134 325.775 309.546 328.908C304.69 333.148 304.923 339.887 306.311 348.041C307.698 356.195 318.825 420.733 318.825 420.733C318.825 420.733 333.418 426.977 351.371 413.498L337.689 348.549C337.689 348.549 361.487 342.499 373.414 332.488C385.341 322.478 383.859 313.231 381.78 303.486C380.731 298.566 373.185 285.291 373.185 285.291L351.157 282.316Z" fill="#4DA7AF"/>
<path d="M336.893 128.921C336.423 126.582 333.593 118.225 337.08 115.192C339.093 113.441 340.878 113.425 342.834 114.737C342.834 114.737 344.005 110.877 349.351 111.349C356.711 111.998 355.684 117.647 355.684 117.647C355.684 117.647 358.118 116.61 360.605 117.872C363.821 119.504 364.194 122.044 363.975 124.634C363.756 127.224 361.785 127.796 361.785 127.796C361.785 127.796 364.387 128.914 364.532 131.236C364.802 135.562 359.891 134.157 359.891 134.157C359.891 134.157 360.674 138.282 358.548 140.338C354.404 144.345 349.451 140.415 349.451 140.415C347.428 141.491 342.543 136.62 342.543 136.62L336.893 128.921Z" fill="#1F1E2F"/>
<path d="M336.82 162.933C338.923 162.373 346.145 160.476 349.541 156.005C359.075 143.454 349.128 131.389 345.333 126.173C339.363 117.967 330.044 118.694 330.044 118.694L329.342 118.726C325.748 118.47 318.546 117.931 313.66 121.491C304.279 128.327 302.579 140.157 308.631 147.371C311.489 150.777 328.856 165.054 336.82 162.933Z" fill="#1F1E2F"/>
<path d="M355.179 190.924C354.492 184.691 353.796 180.493 353.796 180.493C353.796 180.493 344.759 179.06 341.549 174.2C336.897 167.157 339.976 150.278 339.976 150.278L322.609 160.809C322.609 160.809 328.107 176.043 319.298 181.129C315.671 183.223 314.271 185.019 314.271 185.019C314.271 185.019 312.37 189.968 312.845 196.386C318.924 196.269 327.75 208.066 333.801 207.296C341.873 206.269 347.158 192.48 355.179 190.924Z" fill="#BD8368"/>
<path d="M324.162 172.922C329.715 173.606 336.151 168.972 339.029 159.347C339.233 154.361 339.976 150.278 339.976 150.278L322.609 160.809C322.609 160.809 324.868 167.082 324.162 172.922Z" fill="#A4725A"/>
<path d="M310.716 128.768C310.31 132.289 311.256 141.282 311.32 147.876C311.352 151.172 310.469 156.277 313.474 161.874C315.38 165.424 318.67 169.651 322.56 169.839C325.867 169.999 328.68 168.443 331.936 165.917C337.063 161.938 339.331 156.515 340.304 152.593C341.277 148.671 340.644 141.488 338.903 134.208C337.162 126.928 332.344 124.205 326.886 123.467C321.427 122.729 310.716 128.768 310.716 128.768Z" fill="#BD8368"/>
<path d="M328.149 139.603C320.488 134.003 318.649 128.71 318.068 122.606C318.068 122.606 324.931 118.579 332.972 122.927C349.605 131.921 344.646 139.52 344.076 147.225C340.805 141.544 335.855 145.235 328.149 139.603Z" fill="#1F1E2F"/>
<path d="M325.545 121.894C322.152 122.386 312.854 129.229 311.097 136.268C308.92 144.993 308.503 134.395 308.503 134.395L308.393 129.685C308.393 129.685 315.192 120.59 320.836 120.863C326.48 121.136 325.545 121.894 325.545 121.894Z" fill="#1F1E2F"/>
<path d="M290.829 215.175C287.804 224.425 284.149 235.328 282.089 240.495C280.838 243.633 279.791 248.848 279.791 248.848C276.125 250.076 268.523 252.541 252.906 259.505C251.406 260.174 244.761 260.953 244.735 260.966C240.908 259.238 233.87 261.384 231.318 261.238C226.869 260.983 224.349 259.431 222.468 260.108C219.479 261.183 220.765 263.076 220.765 263.076C220.765 263.076 217.563 262.629 216.597 263.454C216.011 263.954 215.827 264.877 216.431 265.734C214.559 265.424 212.717 265.756 212.631 266.881C212.545 268.009 215.078 269.307 217.36 270.322C215.877 270.13 214.654 269.931 214.185 270.015C213.289 270.176 212.689 271.26 213.256 272.101C213.823 272.942 217.131 273.896 220.294 274.531C222.654 275.005 227.449 274.896 229.733 274.81C230.156 274.827 230.58 274.812 230.998 274.754C236.799 273.957 244.121 270.312 247.274 269.718C247.311 269.676 247.348 269.638 247.385 269.597C254.93 268.837 268.162 267.413 279.092 265.755C287.094 264.541 292.276 259.709 293.101 258.329C298.972 248.506 306.481 232.919 310.671 223.982C304.064 221.024 297.509 217.949 290.829 215.175Z" fill="#BD8368"/>
<path d="M302.01 239.426C304.061 239.831 305.199 237.078 307.465 237.345C313.139 225.848 317.54 219.465 317.54 219.465C317.54 219.465 319.26 189.955 312.491 185.504C312.491 185.504 305.222 190.838 299.629 196.412C293.283 202.736 286.556 220.807 284.885 232.873C291.186 235.836 295.202 238.081 302.01 239.426Z" fill="#4DA7AF"/>
<path d="M286.593 224.237C285.574 227.875 284.79 230.788 284.001 234.011C287.572 236.082 297.141 241.074 306.21 241.074C307.837 237.396 310.282 232.152 310.282 232.152C300.879 231.574 293.979 228.312 286.593 224.237Z" fill="#7C46C0"/>
<path d="M305.707 217.622C304.788 221.461 306.212 227.797 311.126 233.116C311.126 233.116 312.893 242.761 312.769 247.574C312.682 250.935 313.625 262.33 313.295 266.226C312.036 281.096 310.282 288.428 310.282 288.428C310.282 288.428 320.603 292.838 337.773 292.944C359.522 293.079 376.324 291.067 376.324 291.067C376.324 291.067 376.223 287.063 373.057 273.472C371.76 267.903 369.386 247.283 369.409 240.962C369.495 217.133 375.1 217.632 374.962 213.461C374.69 205.191 369.851 191.772 365.464 186.824C360.584 181.319 344.094 176.472 344.094 176.472C344.094 176.472 343.362 182.17 340.727 187.999C337.883 194.292 333.241 196.399 331.226 196.653C318.721 198.232 320.109 180.307 320.109 180.307L312.491 185.503C312.491 185.503 309.343 202.435 305.707 217.622Z" fill="#4DA7AF"/>
<path d="M328.508 213.425L313.886 215.055L314.348 219.199L328.97 217.569L328.508 213.425Z" fill="white"/>
<path d="M340.593 144.12C340.593 144.12 341.585 140.936 343.489 142.833C345.393 144.73 343.655 148.895 341.979 150.745C340.303 152.594 338.056 152.219 338.056 152.219L340.593 144.12Z" fill="#BD8368"/>
<path d="M120.609 443.067V349.098C120.609 343.316 116.762 338.629 112.017 338.629H76.271C71.526 338.629 67.679 343.316 67.679 349.098V443.067" stroke="#A2A5AD" stroke-width="5" stroke-miterlimit="10"/>
<path d="M435.818 443.067V349.098C435.818 343.316 431.971 338.629 427.226 338.629H391.48C386.735 338.629 382.888 343.316 382.888 349.098V443.067" stroke="#A2A5AD" stroke-width="5" stroke-miterlimit="10"/>
<path d="M425.046 316.539H39.195V337.287H425.046V316.539Z" fill="#BEC1CB"/>
<path d="M457.081 316.539H425.046V337.287H457.081V316.539Z" fill="#A2A5AD"/>
<path d="M81.923 315.345C82.93 314.779 85.815 314.585 87.052 314.168C90.002 313.172 93.295 312.245 96.226 311.435C100.386 310.284 100.774 308.872 107.473 307.661C114.172 306.45 117.319 294.042 120.992 285.321C128.613 267.225 135.477 257.237 139.531 249.932C143.585 242.627 159.998 209.585 159.998 209.585C161.412 206.747 165.318 195.245 175.046 196.51C180.437 197.211 183.656 205.44 180.564 213.747C178.038 220.532 156.59 245.301 151.537 258.432C148.723 265.746 142.96 274.77 136.514 283.938C132.554 289.571 119.915 308.333 118.628 311.427C116.872 315.649 114.942 317.59 112.791 318.549C110.641 319.509 99.542 318.242 96.541 318.412C90.878 318.732 91.105 318.215 87.406 318.801C85.211 319.149 84.606 317.296 83.526 317.434C80.776 317.786 80.41 316.195 81.923 315.345Z" fill="#FEC1B2"/>
<path d="M382.5 317.13L382.484 317.031C370.797 317.42 352.172 318.131 346.131 318.001C346.603 313.064 347.148 308.136 347.842 303.226C354 304.151 381.868 304.38 383.623 304.611C385.409 304.62 386.893 304.621 387.97 304.617C387.973 304.616 387.977 304.616 387.98 304.615C390.122 303.939 391.199 302.323 393.826 298.448C396.453 294.573 399.495 284.275 400.264 282.09C401.034 279.905 402.321 278.521 402.832 277.102C403.344 275.682 404.942 274.758 404.942 274.758C405.015 273.206 406.81 272.847 407.555 274.882C408.301 276.917 407.325 283.091 406.768 290.174C406.211 297.257 406.078 309.47 405.694 312.895C405.31 316.32 404.424 318.611 401.083 318.787C397.742 318.962 394.918 317.607 392.501 317.048C391.839 316.895 391.142 316.82 390.389 316.79C389.932 316.792 388.554 316.833 386.548 316.897C385.364 316.97 384.044 317.06 382.5 317.13Z" fill="#EAAD96"/>
<path d="M156.509 277.561C156.327 289.363 150.012 313.762 172.029 318.235C187.865 321.452 198.799 320.396 218.179 319.932C233.851 319.556 296.352 317.802 296.352 317.802C296.352 317.802 326.09 319.954 345.723 320.585C365.355 321.216 382.5 317.131 382.5 317.131C382.5 317.131 384.528 310.442 382.755 304.488C382.755 304.488 326.597 298.088 317.429 296.658C304.65 294.664 275.655 286.681 262.003 284.71C248.351 282.739 206.736 276.278 197.327 276.559C187.916 276.839 156.509 277.561 156.509 277.561Z" fill="#252B42"/>
<path d="M297.22 271.534C302.934 277.823 314.738 287.262 318.231 291.261C320.014 293.303 321.949 295.182 323.939 296.901C324.745 297.521 336.446 306.508 340.302 308.865C344.297 311.306 354.727 313.858 356.946 314.524C359.165 315.19 360.608 316.41 362.05 316.854C363.493 317.298 364.491 318.851 364.491 318.851C366.044 318.851 366.488 320.626 364.491 321.467C362.494 322.308 356.28 321.625 349.179 321.403C342.077 321.181 329.872 321.625 326.432 321.403C322.992 321.181 320.662 320.404 320.329 317.076C320.053 314.32 320.195 311.196 317.784 308.51C317.283 307.952 312.194 302.052 308.322 299.884C303.395 297.125 293.013 287.405 286.555 281.903C290.043 278.375 293.579 274.901 297.22 271.534Z" fill="#EAAD96"/>
<path d="M148.87 283.22C153.171 294.212 154.141 318.674 176.604 319.152C199.067 319.63 212.821 306.831 225.247 297.272C237.673 287.714 268.779 262.384 268.779 262.384C268.779 262.384 274.323 273.898 289.139 286.795C303.955 299.692 312.469 304.485 312.469 304.485C312.469 304.485 319.049 300.228 321.438 294.493C321.438 294.493 298.579 262.277 291.182 249.959C284.523 238.871 275.515 230.26 262.133 233.605C248.751 236.95 201.35 259.04 192.748 262.863C184.145 266.685 148.87 283.22 148.87 283.22Z" fill="#313858"/>
<path d="M170.657 190.19C173.21 195.436 184.77 193.548 193.783 183.433C202.796 173.319 209.716 155.761 201.597 142.859C193.478 129.957 181.052 153.872 176.643 166.674C172.234 179.476 170.657 190.19 170.657 190.19Z" fill="#531717"/>
<path d="M148.87 186.636C148.87 186.636 156.718 176.197 162.204 168.006C167.303 160.394 167.075 155.209 167.148 154.619C167.152 154.583 167.156 154.546 167.156 154.546L172.53 139.291C172.53 139.291 179.249 133.198 187.757 138.253C196.265 143.308 199.41 146.918 199.921 151.102C200.351 154.626 198.87 158.629 198.021 160.388C197.173 162.147 195.43 163.362 195.573 165.47C195.716 167.578 197.753 172.182 197.598 173.271C197.443 174.36 193.891 174.709 193.269 175.175C192.647 175.642 188.565 179.987 186.742 182.374C185.351 184.196 182.636 181.291 178.167 180.526C175.987 180.153 174.415 181.139 173.152 182.856C171.592 186.195 174.791 188.969 176.859 191.518C176.859 191.518 187.327 205.568 187.04 211.993C186.937 214.304 184.862 221.659 184.862 221.659C184.862 221.659 176.96 225.862 168.01 223.006C159.813 220.391 152.005 194.763 152.518 186.165L148.87 186.636Z" fill="#EAAD96"/>
<path d="M146.88 187.625C146.88 187.625 157.245 183.72 162.89 190.076C168.535 196.432 165.939 210.217 177.919 212.81C193.3 216.139 177.286 193.04 175.119 189.477L180.082 192.493C180.082 192.493 183.689 199.539 186.533 204.51C189.377 209.481 193.72 216.364 193.285 222.865C192.851 229.366 182.202 234.512 182.636 240.105C183.07 245.697 192.747 262.862 192.747 262.862C192.747 262.862 191.368 276.661 177.399 286.918C166.442 294.964 157.827 294.043 149.931 293.822C147.367 283.667 136.739 263.668 136.851 244.64C137.023 215.442 133.736 194.496 137.861 188.903C141.987 183.311 146.88 187.625 146.88 187.625Z" fill="#FF78C7"/>
<path d="M167.837 186.243C169.303 172.858 166.826 163.534 174.764 158.502C176.909 157.142 184.056 156.421 186.717 156.002C201.183 153.728 201.597 142.859 201.597 142.859C201.597 142.859 196.19 134.285 184.113 131.036C172.036 127.787 157.95 132.283 151.694 153.348C147.461 167.604 141.495 172.753 134.563 186.129C124.566 205.418 141.495 210.217 141.495 210.217C155.52 204.642 140.51 208.469 142.893 195.744C143.297 193.591 153.316 191.864 158.753 192.703C164.461 193.584 167.156 192.454 167.837 186.243Z" fill="#531717"/>
<path d="M176.211 158.97C176.211 158.97 175.651 153.426 171.167 154.636C166.683 155.846 167.512 163.219 170.686 167.263L176.211 158.97Z" fill="#EAAD96"/>
<path d="M50.727 316.896C51.752 316.35 54.884 314.87 56.163 314.506C59.215 313.638 62.636 312.872 65.682 312.205C70.005 311.259 79.559 311.143 86.57 310.327C93.581 309.511 95.96 296.092 99.181 286.773C105.865 267.437 112.374 256.969 116.108 249.239C119.842 241.508 134.697 206.395 134.697 206.395C135.977 203.38 139.232 191.016 149.647 193.161C155.418 194.349 159.469 203.659 156.832 212.567C154.678 219.843 133.843 245.458 129.499 259.526C127.079 267.362 121.665 276.853 115.537 286.45C111.772 292.346 100.779 317.151 97.598 318.466C94.417 319.782 85.944 322.516 83.737 323.406C81.53 324.296 78.048 322.922 74.901 323.137C71.754 323.352 65.549 322.948 65.785 321.543C66.021 320.138 67.085 318.878 70.546 318.887C74.007 318.896 77.725 317.402 77.725 317.402C77.725 317.402 73.631 316.821 68.804 316.919C66.884 316.958 63.065 317.098 59.373 317.637C56.984 317.985 53.722 319.25 52.587 319.319C49.699 319.496 49.188 317.716 50.727 316.896Z" fill="#FEC1B2"/>
<path d="M309.704 257.249C309.704 257.249 303.534 259.142 301.978 258.094C300.422 257.046 299.135 255.826 297.301 255.439C295.656 255.092 294.781 255.749 294.781 255.749L296.89 259.638C296.89 259.638 288.688 261.618 286.364 261.452C284.04 261.286 277.186 261.302 276.583 262.115C275.98 262.929 276.992 264.107 278.11 264.491C278.11 264.491 272.892 263.642 272.596 264.517C272.3 265.391 273.349 267.472 275.533 267.754C275.533 267.754 275.022 269.246 276.176 269.99C277.33 270.734 279.579 271.026 279.579 271.026C279.579 271.026 278.423 271.786 279.35 272.437C280.277 273.087 282.814 273.541 286.4 274.031C289.986 274.521 293.959 274.099 297.317 272.804C298.577 272.318 301.67 270.481 304.199 269.581C308.41 268.082 313.4 267.328 313.4 267.328L309.704 257.249Z" fill="#BD8368"/>
<path d="M353.596 213.442C350.886 223.16 342.54 244.725 342.54 244.725C334.458 246.535 314.981 255.56 304.099 258.648C304.959 261.984 305.744 265.338 306.469 268.706C312.661 267.728 321.277 266.337 331.486 264.618C341.853 262.873 345.969 260.587 351.178 258.601C355.492 256.956 361.885 244.222 368.84 229.012C371.382 223.453 373.316 218.86 374.433 214.993C366.65 215.464 361.21 215.069 353.596 213.442Z" fill="#BD8368"/>
<path d="M366.652 234.887C367.98 232.374 370.794 227.283 371.984 224.693C378.969 209.496 375.873 203.175 373.97 197.789C371.694 191.348 365.464 186.825 365.464 186.825L353.743 203.501C352.589 208.353 350.275 215.825 348.341 221.815C353.605 226.515 359.953 233.027 366.652 234.887Z" fill="#4DA7AF"/>
<path d="M348.341 221.815C348.341 221.815 361.601 229.534 369.531 230.415L364.544 240.002C364.544 240.002 352.161 236.84 344.899 229.51L348.341 221.815Z" fill="#7C46C0"/>
</g>
<defs>
<clipPath id="clip0_190_849">
<rect width="500" height="500" fill="white"/>
</clipPath>
</defs>
</svg>
