<svg width="128" height="128" viewBox="0 0 128 128" fill="none" xmlns="http://www.w3.org/2000/svg">
<g clip-path="url(#clip0_115_10)">
<path d="M63.9997 128C57.5162 128 51.0095 126.917 44.6595 124.781C42.668 124.111 41.5968 121.954 42.2668 119.963C42.9362 117.971 45.093 116.899 47.0853 117.57C52.652 119.442 58.3428 120.392 64 120.392C95.0943 120.392 120.391 94.8692 120.391 63.4985C120.392 32.6807 94.982 7.6085 63.7492 7.6085C32.7935 7.6085 7.6085 32.6807 7.6085 63.4985C7.6085 74.317 10.6058 84.7885 16.2765 93.7832L17.7547 96.0007C18.3652 96.9172 18.5495 98.0535 18.2585 99.1158L14.218 113.872L29.448 109.976C31.484 109.454 33.5555 110.683 34.0765 112.718C34.5972 114.754 33.3693 116.826 31.334 117.347L9.764 122.865C8.45075 123.201 7.05875 122.813 6.1085 121.846C5.15825 120.88 4.79375 119.482 5.15175 118.175L10.4625 98.7785L9.91925 97.9638C9.90225 97.938 9.885 97.9118 9.86825 97.885C3.4125 87.6637 0 75.7728 0 63.4985C0 46.481 6.63375 30.5138 18.6793 18.5382C30.7033 6.5835 46.7093 0 63.749 0C80.838 0 96.9265 6.54325 109.05 18.4247C121.27 30.4 128 46.4075 128 63.498C128 80.6185 121.294 96.792 109.117 109.038C96.9592 121.266 80.9362 128 63.9997 128Z" fill="#7C46C0"/>
<path d="M99.8043 88.269L100.963 84.4507C101.333 83.363 100.894 81.9282 99.8298 81.2795L83.0078 71.7612C81.9433 71.113 80.5315 71.2742 79.6055 72.3155L71.9188 80.6212C71.317 81.1302 70.4605 81.338 69.6508 80.9907C66.8373 79.7247 60.6648 76.888 56.0765 72.2995L56.0773 72.2987C56.0138 72.2362 55.952 72.1735 55.889 72.1112C55.8265 72.048 55.7638 71.9865 55.7015 71.923L55.7008 71.9237C50.9163 67.1392 48.2753 61.163 47.0095 58.3495C46.6623 57.5395 46.87 56.6832 47.379 56.0815L55.6848 48.3947C56.726 47.4687 56.8873 46.0567 56.239 44.9925L46.7208 28.1705C46.0725 27.106 44.6373 26.667 43.5495 27.0375L39.7313 28.196C35.6353 29.378 31.9565 32.2025 29.7825 36.2997C27.1463 41.5542 26.269 47.7802 29.1415 55.3705C33.9633 68.1695 40.5965 76.9352 45.831 82.1695C51.0653 87.4037 59.831 94.0367 72.63 98.859C80.2203 101.731 86.4458 100.854 91.7008 98.218C95.7975 96.0437 98.6223 92.365 99.8043 88.269Z" fill="#BC64D6"/>
<path d="M81.7495 104.447C81.749 104.447 81.7487 104.447 81.7482 104.447C78.3632 104.447 74.842 103.763 71.2827 102.416C57.2462 97.1282 48.2305 89.9498 43.1402 84.8592C38.0497 79.7692 30.8712 70.7535 25.581 56.7112C22.6437 48.9512 22.9127 41.508 26.3817 34.5937C26.3947 34.568 26.408 34.542 26.4212 34.5165C28.981 29.692 33.4367 26.06 38.6487 24.5482L42.397 23.4107C43.0227 23.2065 43.6825 23.103 44.3587 23.103C46.6587 23.103 48.8082 24.286 49.9685 26.1905C49.9897 26.2255 50.0102 26.261 50.031 26.2967L59.5255 43.0767C61.094 45.7195 60.5607 49.1195 58.2462 51.2065L50.9907 57.921C52.2907 60.7555 54.628 65.4463 58.3307 69.174C58.3605 69.2025 58.3897 69.231 58.4182 69.2607L58.7382 69.5807C58.7675 69.6092 58.7965 69.6385 58.825 69.6682C62.444 73.2605 67.3547 75.7425 70.0802 77.0067L76.7927 69.7535C78.0432 68.3665 79.8072 67.5722 81.6397 67.5722C82.7947 67.5722 83.928 67.8837 84.9225 68.4742L101.702 77.9687C101.738 77.989 101.774 78.0097 101.809 78.0312C104.316 79.5595 105.502 82.8017 104.588 85.6025L103.451 89.3512C101.939 94.5635 98.3072 99.019 93.4827 101.579C93.4572 101.592 93.4317 101.605 93.4055 101.618C89.6647 103.495 85.743 104.447 81.7495 104.447ZM33.1627 38.0457C30.6712 43.0377 30.5195 48.265 32.6995 54.0235C37.767 67.4742 44.787 75.7452 48.521 79.4792C52.2547 83.213 60.526 90.2335 73.9712 95.2988C76.6722 96.321 79.2872 96.8382 81.749 96.8382H81.7497C84.5732 96.8382 87.2572 96.184 89.9542 94.8372C92.9572 93.2308 95.214 90.4548 96.149 87.2142C96.154 87.1975 96.1585 87.1807 96.1637 87.1645L97.093 84.102L81.8585 75.482L74.711 83.2052C74.6057 83.319 74.4935 83.4263 74.375 83.5262C73.2762 84.4548 71.893 84.9665 70.479 84.9665C69.6767 84.9665 68.8935 84.8052 68.1507 84.4867C68.1302 84.478 68.11 84.4687 68.0895 84.4597C65.4877 83.2892 58.5762 80.1795 53.3862 74.989C53.3667 74.9695 53.3477 74.9502 53.3292 74.9305L53.215 74.8172C53.2042 74.8065 53.1932 74.7955 53.1827 74.785L53.0695 74.6707C53.0497 74.652 53.0302 74.6327 53.011 74.6137C47.8155 69.4182 44.973 63.0965 43.607 60.0582L43.5405 59.9102C43.5312 59.8897 43.5225 59.8695 43.5135 59.849C42.6202 57.7665 42.9885 55.3817 44.4745 53.6245C44.5745 53.5062 44.6817 53.3942 44.7952 53.289L52.5185 46.1415L43.8985 30.907L40.836 31.8362C40.8197 31.8412 40.803 31.8462 40.7862 31.851C37.5452 32.786 34.7692 35.0422 33.1627 38.0457Z" fill="#7C46C0"/>
</g>
<defs>
<clipPath id="clip0_115_10">
<rect width="128" height="128" fill="white"/>
</clipPath>
</defs>
</svg>
